<svg width="544" height="300" viewBox="0 0 544 300" fill="none" xmlns="http://www.w3.org/2000/svg">
<line x1="62" y1="192.5" x2="327" y2="192.5" stroke="#DBD0D0" stroke-width="3"/>
<line x1="194" y1="92.5" x2="459" y2="92.5" stroke="#DBD0D0" stroke-width="3"/>
<line x1="230" y1="298.5" x2="495" y2="298.5" stroke="#DBD0D0" stroke-width="3"/>
<path d="M166.109 75.28C163.975 75.28 162.909 74.3733 162.909 72.56C162.909 72.1867 163.069 71.4933 163.389 70.48L164.269 67.28C164.375 66.6933 164.455 65.1733 164.509 62.72C164.562 60.2667 164.589 56.8533 164.589 52.48C164.589 48.1067 164.562 44.64 164.509 42.08C164.455 39.52 164.375 37.8667 164.269 37.12C164.162 36.3733 164.029 35.68 163.869 35.04C163.762 34.4 163.629 33.8133 163.469 33.28C163.149 32.2133 162.989 31.3867 162.989 30.8C162.989 29.0933 164.509 28.24 167.549 28.24C168.989 28.24 170.269 28.5867 171.389 29.28C172.509 29.9733 173.069 30.9333 173.069 32.16C173.069 32.7467 172.989 33.52 172.829 34.48L172.589 36.16C172.535 36.5333 172.482 37.1467 172.429 38C172.429 38.8533 172.429 39.9467 172.429 41.28C172.429 44 172.589 45.68 172.909 46.32C173.229 46.96 173.789 47.28 174.589 47.28C175.389 47.28 178.055 44.5333 182.589 39.04C183.442 38.0267 184.109 37.2 184.589 36.56C185.122 35.92 185.549 35.3867 185.869 34.96C186.189 34.48 186.455 34.0267 186.669 33.6C186.882 33.1733 187.149 32.6933 187.469 32.16C188.215 30.7733 188.989 29.7867 189.789 29.2C190.589 28.6133 191.869 28.32 193.629 28.32C195.815 28.32 196.909 28.9867 196.909 30.32C196.909 30.48 194.615 33.3067 190.029 38.8C185.442 44.2933 183.149 47.76 183.149 49.2C183.149 49.4667 183.415 50.08 183.949 51.04C184.482 51.9467 185.175 53.0667 186.029 54.4C186.882 55.7333 187.842 57.1733 188.909 58.72C189.975 60.2667 191.015 61.7867 192.029 63.28C193.095 64.7733 194.082 66.16 194.989 67.44C195.949 68.6667 196.695 69.6267 197.229 70.32C198.882 72.5067 199.709 73.8133 199.709 74.24C199.709 75.2 198.749 75.68 196.829 75.68H195.629C194.615 75.68 193.789 75.6267 193.149 75.52C192.562 75.4133 191.975 75.0933 191.389 74.56C190.855 73.9733 190.215 73.12 189.469 72C188.722 70.8267 187.682 69.2 186.349 67.12C185.015 65.04 183.869 63.28 182.909 61.84C181.949 60.3467 181.069 59.12 180.269 58.16C179.469 57.2 178.722 56.5067 178.029 56.08C177.389 55.6533 176.722 55.44 176.029 55.44C175.229 55.44 174.562 55.92 174.029 56.88C173.549 57.7867 173.175 58.8533 172.909 60.08C172.695 61.2533 172.535 62.4267 172.429 63.6C172.375 64.7733 172.349 65.6267 172.349 66.16L172.829 70.32C172.829 71.28 172.615 72.08 172.189 72.72C171.815 73.36 171.309 73.8667 170.669 74.24C170.082 74.6133 169.362 74.88 168.509 75.04C167.709 75.2 166.909 75.28 166.109 75.28ZM240.378 32.4C240.378 30.2667 241.738 29.2 244.458 29.2C245.684 29.2 246.698 29.6267 247.498 30.48C248.351 31.28 248.778 32.2133 248.778 33.28C248.778 34.2933 248.484 35.6 247.898 37.2C247.631 38 247.418 38.8267 247.258 39.68C247.098 40.5333 246.964 41.4133 246.858 42.32C246.751 43.2267 246.671 44.5067 246.618 46.16C246.564 47.76 246.538 49.7333 246.538 52.08V53.52C246.484 54 246.458 54.9067 246.458 56.24C246.458 57.52 246.458 59.2267 246.458 61.36C246.458 65.5733 246.298 69.0933 245.978 71.92C245.764 73.68 244.858 74.56 243.258 74.56C241.551 74.56 239.551 73.0933 237.258 70.16C236.618 69.36 233.338 64.3467 227.418 55.12C221.498 46 218.004 41.44 216.938 41.44C216.191 41.44 215.818 48.16 215.818 61.6C215.818 62.3467 215.844 63.1467 215.898 64C215.951 64.8533 216.031 65.7867 216.138 66.8L216.378 70.08C216.378 71.4667 215.844 72.64 214.778 73.6C213.711 74.56 212.431 75.04 210.938 75.04C208.911 75.04 207.898 74.32 207.898 72.88C207.898 71.92 208.191 70.7733 208.778 69.44C209.684 67.04 210.138 61.4933 210.138 52.8V51.28L210.298 48.32V40.96C210.298 38.0267 210.058 35.6 209.578 33.68C209.418 33.2 209.284 32.8 209.178 32.48C209.124 32.1067 209.044 31.8133 208.938 31.6C208.884 31.3333 208.831 31.0933 208.778 30.88C208.778 29.76 209.604 29.2 211.258 29.2C214.564 29.2 217.658 30.9333 220.538 34.4C223.524 37.8133 227.364 43.0933 232.058 50.24C236.804 57.3867 239.391 60.96 239.818 60.96C240.618 60.96 241.018 54.5067 241.018 41.6C241.018 39.8933 240.991 38.4533 240.938 37.28C240.884 36.0533 240.804 35.0933 240.698 34.4C240.591 33.8667 240.511 33.36 240.458 32.88C240.404 32.72 240.378 32.56 240.378 32.4ZM298.216 50.24V52.64C298.216 54.24 298.056 56.1067 297.736 58.24C297.469 60.32 296.882 62.4267 295.976 64.56C295.122 66.64 293.869 68.6133 292.216 70.48C290.616 72.3467 288.509 73.8667 285.896 75.04C283.016 76.32 280.136 76.96 277.256 76.96H276.536C273.229 76.96 270.349 76.32 267.896 75.04C265.442 73.76 263.389 72.0533 261.736 69.92C260.082 67.7333 258.829 65.2533 257.976 62.48C257.176 59.6533 256.776 56.7467 256.776 53.76V52.16C256.776 48.96 257.176 45.8667 257.976 42.88C258.776 39.8933 260.002 37.2533 261.656 34.96C263.362 32.6133 265.496 30.7467 268.056 29.36C270.669 27.92 273.736 27.2 277.256 27.2H278.856C281.202 27.2 283.656 27.76 286.216 28.88C288.296 29.7867 290.082 31.0133 291.576 32.56C293.122 34.0533 294.376 35.76 295.336 37.68C296.349 39.6 297.069 41.6533 297.496 43.84C297.976 45.9733 298.216 48.1067 298.216 50.24ZM264.296 51.44V53.2C264.296 58.32 265.282 62.5067 267.256 65.76C268.376 67.68 269.789 69.1733 271.496 70.24C273.202 71.2533 274.776 71.76 276.216 71.76H277.816C280.162 71.76 282.109 71.12 283.656 69.84C285.202 68.5067 286.429 66.88 287.336 64.96C288.296 62.9867 288.962 60.88 289.336 58.64C289.709 56.4 289.896 54.3467 289.896 52.48V51.04C289.896 49.8133 289.816 48.4 289.656 46.8C289.496 45.2 289.149 43.6 288.616 42C288.136 40.3467 287.442 38.8 286.536 37.36C285.629 35.8667 284.456 34.6667 283.016 33.76C281.309 32.6933 279.576 32.16 277.816 32.16H276.696C275.149 32.16 273.549 32.6133 271.896 33.52C270.402 34.3733 269.176 35.4667 268.216 36.8C267.256 38.1333 266.482 39.6267 265.896 41.28C265.309 42.88 264.882 44.56 264.616 46.32C264.402 48.08 264.296 49.7867 264.296 51.44ZM347.993 60.96C349.273 60.96 351.353 55.3333 354.233 44.08C355.833 37.7333 356.793 34.1867 357.113 33.44C358.073 30.9867 359.353 29.76 360.953 29.76C362.499 29.76 363.273 30.8267 363.273 32.96C363.273 34.0267 362.819 36.16 361.913 39.36L358.073 53.6C357.273 56.8 356.553 59.4667 355.913 61.6C355.326 63.7333 354.819 65.3867 354.393 66.56C354.179 67.04 353.886 67.6267 353.513 68.32C353.139 68.96 352.686 69.6267 352.153 70.32C351.673 70.96 351.113 71.52 350.473 72C349.886 72.4267 349.299 72.64 348.713 72.64C346.846 72.64 345.246 71.4667 343.913 69.12C343.219 68 342.419 66.4 341.513 64.32C340.659 62.1867 339.673 59.6 338.553 56.56C336.313 50.5333 335.113 47.52 334.953 47.52C334.739 47.52 333.433 50.6133 331.033 56.8C329.806 59.8933 328.793 62.4 327.993 64.32C327.193 66.24 326.579 67.5733 326.153 68.32C324.659 70.9333 323.006 72.24 321.193 72.24C320.553 72.24 319.939 72.0267 319.353 71.6C318.766 71.1733 318.233 70.6667 317.753 70.08C317.273 69.44 316.846 68.7733 316.473 68.08C316.099 67.3867 315.833 66.8 315.673 66.32C315.406 65.52 314.979 64.2133 314.393 62.4C313.859 60.5333 313.246 58.4533 312.553 56.16C311.913 53.8133 311.246 51.3867 310.553 48.88C309.859 46.3733 309.219 44.0533 308.633 41.92C308.099 39.7333 307.646 37.8933 307.273 36.4C306.953 34.9067 306.793 34.0267 306.793 33.76V32.8C306.793 31.04 307.459 30.16 308.793 30.16C310.179 30.16 311.246 30.48 311.993 31.12C312.793 31.7067 313.566 32.72 314.313 34.16C314.419 34.4267 314.819 35.7333 315.513 38.08C316.259 40.3733 317.273 43.7067 318.553 48.08C321.219 56.88 322.846 61.28 323.432 61.28C323.859 61.28 324.393 60.4 325.033 58.64C325.673 56.8267 326.339 54.72 327.033 52.32C327.726 49.92 328.339 47.4933 328.873 45.04C329.406 42.5333 329.753 40.5867 329.913 39.2C330.073 37.8133 330.206 36.64 330.313 35.68C330.473 34.6667 330.713 33.84 331.033 33.2C331.353 32.56 331.806 32.1067 332.393 31.84C332.979 31.52 333.779 31.36 334.793 31.36C336.073 31.36 337.086 31.6 337.833 32.08C338.633 32.5067 339.246 33.12 339.673 33.92C340.153 34.6667 340.526 35.5733 340.793 36.64C341.059 37.7067 341.299 38.88 341.513 40.16C341.779 41.44 342.206 43.2533 342.793 45.6C343.433 47.8933 344.073 50.1867 344.713 52.48C345.406 54.7733 346.073 56.7733 346.713 58.48C347.353 60.1333 347.779 60.96 347.993 60.96ZM220.983 130.16C221.996 128.667 223.756 127.92 226.263 127.92C228.769 127.92 230.023 128.533 230.023 129.76C230.023 130.507 229.356 131.813 228.023 133.68C226.689 135.547 225.303 137.973 223.863 140.96C221.676 145.44 219.943 148.933 218.663 151.44C217.436 153.947 216.503 156.053 215.863 157.76C215.276 159.413 214.903 160.96 214.743 162.4C214.636 163.787 214.583 165.6 214.583 167.84C214.583 168.587 214.743 169.52 215.063 170.64C215.383 171.76 215.543 172.507 215.543 172.88C215.543 175.227 213.783 176.4 210.263 176.4C207.009 176.4 205.383 175.173 205.383 172.72C205.383 172.4 205.596 171.6 206.023 170.32C206.236 169.733 206.423 169.2 206.583 168.72C206.796 168.24 206.956 167.707 207.063 167.12C207.223 166.48 207.329 165.733 207.383 164.88C207.489 164.027 207.543 162.96 207.543 161.68C207.543 160.4 207.463 159.307 207.303 158.4C207.143 157.493 206.823 156.507 206.343 155.44C205.916 154.32 205.249 152.96 204.343 151.36C203.489 149.76 202.343 147.653 200.903 145.04C199.516 142.373 198.369 140.267 197.463 138.72C196.556 137.173 195.943 136.187 195.623 135.76C193.436 132.933 192.343 131.173 192.343 130.48C192.343 129.307 193.836 128.72 196.823 128.72C199.756 128.72 201.703 129.467 202.663 130.96C202.876 131.387 203.089 132.133 203.303 133.2C203.463 133.84 203.916 135.04 204.663 136.8C205.463 138.507 206.343 140.293 207.303 142.16C208.263 144.027 209.169 145.68 210.023 147.12C210.876 148.56 211.409 149.28 211.623 149.28C212.583 149.28 214.689 145.947 217.943 139.28C218.956 137.253 219.649 135.333 220.023 133.52C220.503 131.6 220.823 130.48 220.983 130.16ZM277.239 150.24V152.64C277.239 154.24 277.079 156.107 276.759 158.24C276.492 160.32 275.906 162.427 274.999 164.56C274.146 166.64 272.892 168.613 271.239 170.48C269.639 172.347 267.532 173.867 264.919 175.04C262.039 176.32 259.159 176.96 256.279 176.96H255.559C252.252 176.96 249.372 176.32 246.919 175.04C244.466 173.76 242.412 172.053 240.759 169.92C239.106 167.733 237.852 165.253 236.999 162.48C236.199 159.653 235.799 156.747 235.799 153.76V152.16C235.799 148.96 236.199 145.867 236.999 142.88C237.799 139.893 239.026 137.253 240.679 134.96C242.386 132.613 244.519 130.747 247.079 129.36C249.692 127.92 252.759 127.2 256.279 127.2H257.879C260.226 127.2 262.679 127.76 265.239 128.88C267.319 129.787 269.106 131.013 270.599 132.56C272.146 134.053 273.399 135.76 274.359 137.68C275.372 139.6 276.092 141.653 276.519 143.84C276.999 145.973 277.239 148.107 277.239 150.24ZM243.319 151.44V153.2C243.319 158.32 244.306 162.507 246.279 165.76C247.399 167.68 248.812 169.173 250.519 170.24C252.226 171.253 253.799 171.76 255.239 171.76H256.839C259.186 171.76 261.132 171.12 262.679 169.84C264.226 168.507 265.452 166.88 266.359 164.96C267.319 162.987 267.986 160.88 268.359 158.64C268.732 156.4 268.919 154.347 268.919 152.48V151.04C268.919 149.813 268.839 148.4 268.679 146.8C268.519 145.2 268.172 143.6 267.639 142C267.159 140.347 266.466 138.8 265.559 137.36C264.652 135.867 263.479 134.667 262.039 133.76C260.332 132.693 258.599 132.16 256.839 132.16H255.719C254.172 132.16 252.572 132.613 250.919 133.52C249.426 134.373 248.199 135.467 247.239 136.8C246.279 138.133 245.506 139.627 244.919 141.28C244.332 142.88 243.906 144.56 243.639 146.32C243.426 148.08 243.319 149.787 243.319 151.44ZM291.176 128.72C294.163 128.72 295.656 129.92 295.656 132.32L295.336 134.96C295.283 135.547 295.229 136.213 295.176 136.96C295.176 137.653 295.176 138.48 295.176 139.44V146.56C295.176 151.52 295.309 155.573 295.576 158.72C295.843 161.867 296.349 164.347 297.096 166.16C297.896 167.973 298.989 169.227 300.376 169.92C301.816 170.56 303.656 170.88 305.896 170.88C308.509 170.88 310.589 170.213 312.136 168.88C313.736 167.493 314.883 165.787 315.576 163.76C316.643 160.72 317.176 153.6 317.176 142.4C317.176 138.24 317.096 135.413 316.936 133.92C316.829 133.12 316.749 132.48 316.696 132C316.643 131.52 316.616 131.173 316.616 130.96C316.616 129.307 317.789 128.48 320.136 128.48H321.176C322.296 128.48 323.229 128.987 323.976 130C324.776 130.96 325.176 131.973 325.176 133.04V134.16C325.176 134.587 324.936 135.573 324.456 137.12C323.869 138.613 323.576 140 323.576 141.28C323.469 142.027 323.416 143.28 323.416 145.04C323.416 146.747 323.416 149.04 323.416 151.92V152.8C323.416 155.413 323.363 157.6 323.256 159.36C323.203 161.12 323.043 162.64 322.776 163.92C322.563 165.2 322.243 166.32 321.816 167.28C321.389 168.24 320.803 169.2 320.056 170.16C317.176 174 312.056 175.92 304.696 175.92C295.149 175.92 289.656 171.467 288.216 162.56C287.896 160.32 287.736 157.013 287.736 152.64C287.736 148.213 287.683 144.8 287.576 142.4C287.523 140 287.203 138.053 286.616 136.56C286.296 135.813 286.056 135.173 285.896 134.64C285.789 134.107 285.736 133.68 285.736 133.36C285.736 130.267 287.549 128.72 291.176 128.72ZM336.187 138.96C336.133 138.64 336.107 138.24 336.107 137.76C336.107 137.227 336.107 136.64 336.107 136C336.107 134.56 336 133.28 335.787 132.16C335.573 131.04 335.467 130.24 335.467 129.76C335.467 128.853 336.347 128.24 338.107 127.92C339.973 127.6 343.12 127.44 347.547 127.44H349.707C358.507 127.44 363.973 130.107 366.107 135.44C366.427 136.133 366.64 136.907 366.747 137.76C366.907 138.613 366.987 139.547 366.987 140.56C366.987 142.64 366.587 144.507 365.787 146.16C364.987 147.76 363.787 149.413 362.187 151.12C360.533 152.933 359.707 154.347 359.707 155.36C359.707 155.947 360 156.907 360.587 158.24C361.173 159.52 361.867 160.88 362.667 162.32C363.467 163.76 364.267 165.12 365.067 166.4C365.92 167.68 366.587 168.56 367.067 169.04C368.933 171.013 369.867 172.347 369.867 173.04V173.68C369.867 174.747 369.013 175.28 367.307 175.28H366.507C364.907 175.28 363.467 174.613 362.187 173.28C361.44 172.533 359.84 170.08 357.387 165.92C356.16 163.84 355.147 162.213 354.347 161.04C353.6 159.813 352.933 158.907 352.347 158.32C351.813 157.68 351.253 157.28 350.667 157.12C350.133 156.96 349.44 156.88 348.587 156.88C346.88 156.88 345.68 157.573 344.987 158.96C344.347 160.293 344.027 161.867 344.027 163.68C344.027 165.44 344.187 167.093 344.507 168.64C344.827 170.133 344.987 171.013 344.987 171.28C344.987 172.667 344.427 173.68 343.307 174.32C342.24 174.907 340.933 175.2 339.387 175.2C337.787 175.2 336.56 174.88 335.707 174.24C334.853 173.6 334.427 172.507 334.427 170.96C334.427 170.32 334.693 169.44 335.227 168.32C335.76 167.2 336.107 166.08 336.267 164.96C336.32 164.427 336.347 163.573 336.347 162.4C336.4 161.227 336.427 159.707 336.427 157.84V148.08L336.347 147.04V145.04L336.187 138.96ZM346.747 151.36H347.627C351.253 151.36 354.133 150.533 356.267 148.88C358.4 147.173 359.467 144.907 359.467 142.08V140.4C359.467 137.893 358.64 135.92 356.987 134.48C355.387 132.987 353.147 132.24 350.267 132.24H349.067L347.627 132.4C346.613 132.4 345.707 132.56 344.907 132.88C344.16 133.2 343.787 133.973 343.787 135.2L343.627 137.36V139.92L343.547 140.88V147.68C343.547 149.227 343.733 150.24 344.107 150.72C344.48 151.147 345.36 151.36 346.747 151.36ZM183.233 227.68C188.407 227.68 192.3 228.693 194.913 230.72C197.527 232.747 198.833 235.547 198.833 239.12C198.833 242.747 197.607 245.707 195.153 248C193.873 249.28 193.233 249.973 193.233 250.08C193.233 250.187 193.5 250.4 194.033 250.72L194.673 251.04C196.807 252.16 198.487 253.653 199.713 255.52C200.993 257.333 201.633 259.467 201.633 261.92V262.8C201.633 265.04 201.1 267.067 200.033 268.88C199.073 270.533 197.873 271.84 196.433 272.8C195.047 273.76 193.527 274.507 191.873 275.04C190.273 275.52 188.593 275.84 186.833 276C185.127 276.107 183.473 276.16 181.873 276.16H177.793C173.26 276.16 170.38 276 169.153 275.68C168.033 275.36 167.473 274.72 167.473 273.76C167.473 273.44 167.713 272.64 168.193 271.36C168.673 270.133 168.913 267.6 168.913 263.76V240.72C168.913 236.88 168.673 234.24 168.193 232.8C167.66 231.52 167.393 230.747 167.393 230.48V230C167.393 229.2 167.927 228.64 168.993 228.32C170.22 228.053 172.22 227.92 174.993 227.92L175.793 227.84H177.473L183.233 227.68ZM176.353 266.08L176.433 267.36C176.433 267.467 176.433 267.627 176.433 267.84C176.433 268.267 176.46 268.747 176.513 269.28C176.513 270.453 178.033 271.04 181.073 271.04H183.713C187.073 271.04 189.66 270.267 191.473 268.72C193.287 267.173 194.193 265.12 194.193 262.56V261.12C194.193 258.453 193.26 256.373 191.393 254.88C189.527 253.387 187.1 252.64 184.113 252.64H180.913C179.153 252.64 177.98 252.827 177.393 253.2C176.807 253.52 176.513 254.24 176.513 255.36L176.353 257.04V266.08ZM176.433 245.68C176.433 247.067 176.62 247.92 176.993 248.24C177.42 248.507 178.327 248.64 179.713 248.64H180.593L180.833 248.56H181.953L183.633 248.4C185.873 248.4 187.767 247.653 189.313 246.16C190.86 244.613 191.633 242.64 191.633 240.24V239.6C191.633 237.147 190.807 235.307 189.153 234.08C187.553 232.853 185.313 232.24 182.433 232.24H181.073C178.62 232.24 177.26 232.56 176.993 233.2C176.62 233.787 176.433 236.4 176.433 241.04V245.68ZM227.873 248L232.993 247.12C235.446 247.12 236.673 248.24 236.673 250.48C236.673 251.813 236.379 252.88 235.793 253.68C235.259 254.48 234.593 254.88 233.793 254.88C233.366 254.88 232.886 254.853 232.353 254.8C231.819 254.693 231.179 254.587 230.433 254.48C229.686 254.32 229.019 254.213 228.433 254.16C227.899 254.107 227.419 254.08 226.993 254.08C225.553 254.08 224.379 254.16 223.473 254.32C222.566 254.48 221.846 254.827 221.313 255.36C220.833 255.84 220.486 256.56 220.273 257.52C220.113 258.427 220.033 259.653 220.033 261.2C220.033 264.347 220.433 266.693 221.233 268.24C222.086 269.733 223.766 270.48 226.273 270.48C229.633 270.48 232.593 270.24 235.153 269.76C237.553 269.28 239.019 269.04 239.553 269.04C241.206 269.04 242.033 269.68 242.033 270.96V271.76C242.033 273.733 240.806 274.96 238.353 275.44C236.646 275.813 232.379 276 225.553 276H224.273C218.726 276 215.073 275.733 213.313 275.2C211.499 274.72 210.593 273.893 210.593 272.72V271.76L211.393 268.88C211.926 266.96 212.193 262.8 212.193 256.4L212.753 241.12C212.753 238.08 212.673 236.213 212.513 235.52C212.459 234.933 212.246 234.16 211.873 233.2C211.713 232.72 211.579 232.267 211.473 231.84C211.366 231.413 211.313 230.987 211.313 230.56C211.313 228.587 216.806 227.6 227.793 227.6H235.393C239.126 227.6 240.993 228.88 240.993 231.44C240.993 232.24 240.726 232.853 240.193 233.28C239.713 233.707 239.099 233.92 238.353 233.92C237.926 233.92 237.366 233.893 236.673 233.84C236.033 233.787 235.206 233.707 234.193 233.6C232.219 233.44 230.006 233.36 227.553 233.36C226.326 233.36 225.286 233.52 224.433 233.84C223.579 234.107 222.859 234.64 222.273 235.44C221.739 236.187 221.339 237.2 221.073 238.48C220.806 239.76 220.673 241.387 220.673 243.36C220.673 245.067 221.179 246.267 222.193 246.96C223.206 247.653 225.099 248 227.873 248ZM288.9 270.16V270.8C288.9 272.507 288.366 273.68 287.3 274.32C286.233 274.907 284.953 275.2 283.46 275.2C282.766 275.2 282.233 275.173 281.86 275.12C281.486 275.013 281.166 274.773 280.9 274.4C280.633 274.027 280.366 273.44 280.1 272.64C279.886 271.84 279.593 270.72 279.22 269.28C278.846 267.733 278.446 266.453 278.02 265.44C277.593 264.427 277.06 263.627 276.42 263.04C275.833 262.4 275.06 261.947 274.1 261.68C273.193 261.413 271.993 261.28 270.5 261.28C267.673 261.28 265.486 261.387 263.94 261.6C262.393 261.813 261.22 262.213 260.42 262.8C259.62 263.333 259.033 264.107 258.66 265.12C258.286 266.08 257.86 267.333 257.38 268.88C257.006 270 256.74 271.12 256.58 272.24C256.473 273.307 256.26 274.08 255.94 274.56C255.673 274.987 254.926 275.2 253.7 275.2C252.473 275.2 251.486 274.693 250.74 273.68C250.046 272.667 249.7 271.547 249.7 270.32C249.7 269.04 250.126 267.813 250.98 266.64C251.406 266.053 251.753 265.493 252.02 264.96C252.34 264.373 252.606 263.84 252.82 263.36C253.033 262.88 253.54 261.44 254.34 259.04C255.14 256.587 256.313 253.173 257.86 248.8C259.353 244.427 260.58 240.907 261.54 238.24C262.553 235.52 263.326 233.6 263.86 232.48C264.873 230.347 265.753 228.987 266.5 228.4C267.246 227.813 268.18 227.52 269.3 227.52C270.42 227.52 271.433 227.92 272.34 228.72C273.3 229.52 274.313 231.067 275.38 233.36C275.38 233.36 278.953 243.44 286.1 263.6C286.473 264.667 287.033 265.813 287.78 267.04C288.526 268.267 288.9 269.307 288.9 270.16ZM269.78 256.4C273.3 256.4 275.06 256.08 275.06 255.44V255.2C275.06 255.093 275.006 254.88 274.9 254.56C274.846 254.24 274.766 253.787 274.66 253.2L274.1 251.2C274.1 251.147 274.046 250.96 273.94 250.64C273.886 250.533 273.566 249.147 272.98 246.48C272.34 243.92 271.54 241.493 270.58 239.2C269.62 236.96 269.06 235.84 268.9 235.84C268.74 235.84 268.34 236.667 267.7 238.32C263.86 247.92 261.94 253.6 261.94 255.36V255.6C261.94 256.133 263.113 256.4 265.46 256.4H269.78ZM329.792 232.4C329.792 230.267 331.152 229.2 333.872 229.2C335.098 229.2 336.112 229.627 336.912 230.48C337.765 231.28 338.192 232.213 338.192 233.28C338.192 234.293 337.898 235.6 337.312 237.2C337.045 238 336.832 238.827 336.672 239.68C336.512 240.533 336.378 241.413 336.272 242.32C336.165 243.227 336.085 244.507 336.032 246.16C335.978 247.76 335.952 249.733 335.952 252.08V253.52C335.898 254 335.872 254.907 335.872 256.24C335.872 257.52 335.872 259.227 335.872 261.36C335.872 265.573 335.712 269.093 335.392 271.92C335.178 273.68 334.272 274.56 332.672 274.56C330.965 274.56 328.965 273.093 326.672 270.16C326.032 269.36 322.752 264.347 316.832 255.12C310.912 246 307.418 241.44 306.352 241.44C305.605 241.44 305.232 248.16 305.232 261.6C305.232 262.347 305.258 263.147 305.312 264C305.365 264.853 305.445 265.787 305.552 266.8L305.792 270.08C305.792 271.467 305.258 272.64 304.192 273.6C303.125 274.56 301.845 275.04 300.352 275.04C298.325 275.04 297.312 274.32 297.312 272.88C297.312 271.92 297.605 270.773 298.192 269.44C299.098 267.04 299.552 261.493 299.552 252.8V251.28L299.712 248.32V240.96C299.712 238.027 299.472 235.6 298.992 233.68C298.832 233.2 298.698 232.8 298.592 232.48C298.538 232.107 298.458 231.813 298.352 231.6C298.298 231.333 298.245 231.093 298.192 230.88C298.192 229.76 299.018 229.2 300.672 229.2C303.978 229.2 307.072 230.933 309.952 234.4C312.938 237.813 316.778 243.093 321.472 250.24C326.218 257.387 328.805 260.96 329.232 260.96C330.032 260.96 330.432 254.507 330.432 241.6C330.432 239.893 330.405 238.453 330.352 237.28C330.298 236.053 330.218 235.093 330.112 234.4C330.005 233.867 329.925 233.36 329.872 232.88C329.818 232.72 329.792 232.56 329.792 232.4ZM362.27 276.48C361.203 276.48 360.056 276.4 358.83 276.24C357.603 276.08 356.403 275.893 355.23 275.68C354.11 275.413 353.07 275.147 352.11 274.88C351.15 274.56 350.403 274.24 349.87 273.92C348.856 273.333 348.056 272.48 347.47 271.36C346.883 270.24 346.59 269.147 346.59 268.08C346.59 267.067 346.83 266.293 347.31 265.76C347.79 265.173 348.323 264.88 348.91 264.88C349.39 264.88 350.456 265.547 352.11 266.88C353.656 268.213 355.203 269.2 356.75 269.84C358.35 270.48 360.323 270.8 362.67 270.8C365.07 270.8 366.99 270.187 368.43 268.96C369.87 267.733 370.59 265.973 370.59 263.68C370.59 262.56 370.376 261.6 369.95 260.8C369.576 260 368.936 259.253 368.03 258.56C367.123 257.867 365.95 257.147 364.51 256.4C363.123 255.653 361.39 254.8 359.31 253.84C357.656 253.04 356.11 252.24 354.67 251.44C353.23 250.587 351.95 249.627 350.83 248.56C349.763 247.44 348.91 246.16 348.27 244.72C347.683 243.227 347.39 241.467 347.39 239.44C347.39 235.813 348.83 232.88 351.71 230.64C354.59 228.347 358.776 227.2 364.27 227.2C367.63 227.2 370.43 227.68 372.67 228.64C373.736 229.12 374.616 229.92 375.31 231.04C376.003 232.107 376.35 233.093 376.35 234C376.35 236.24 375.603 237.36 374.11 237.36C373.736 237.36 372.35 236.56 369.95 234.96C367.496 233.36 365.07 232.56 362.67 232.56C360.27 232.56 358.323 233.12 356.83 234.24C355.336 235.36 354.59 236.933 354.59 238.96C354.59 239.973 354.75 240.853 355.07 241.6C355.443 242.347 356.03 243.067 356.83 243.76C357.683 244.453 358.803 245.173 360.19 245.92C361.63 246.667 363.416 247.52 365.55 248.48C367.256 249.227 368.856 250.027 370.35 250.88C371.896 251.733 373.256 252.72 374.43 253.84C375.603 254.96 376.536 256.293 377.23 257.84C377.923 259.333 378.27 261.12 378.27 263.2C378.27 264.16 378.163 265.093 377.95 266C377.736 266.853 377.443 267.707 377.07 268.56C375.736 271.28 373.683 273.28 370.91 274.56C368.19 275.84 365.39 276.48 362.51 276.48H362.27Z" fill="#DBD0D0"/>
</svg>
