<svg width="142" height="36" viewBox="0 0 142 36" fill="none" xmlns="http://www.w3.org/2000/svg">
<path d="M138.667 19.5001C138.667 14.9821 133.443 11.3196 127 11.3196C120.557 11.3196 115.333 14.9821 115.333 19.5001C115.333 24.0181 120.557 27.6807 127 27.6807C133.443 27.6807 138.667 24.0181 138.667 19.5001Z" fill="white"/>
<path fill-rule="evenodd" clip-rule="evenodd" d="M138.667 19.5001C138.667 19.5065 138.658 19.5083 138.656 19.5018C137.475 15.8571 132.714 13.1313 127.021 13.1313C121.325 13.1313 116.562 15.8606 115.385 19.5078C115.376 19.538 115.333 19.5315 115.333 19.5001C115.333 14.9823 120.557 11.3195 127 11.3195C133.443 11.3195 138.667 14.9823 138.667 19.5001Z" fill="#6A462F"/>
<path d="M138.656 19.5018L139.051 19.3653L138.656 19.5018ZM127.021 13.5618C129.805 13.5618 132.35 14.2292 134.333 15.3293C136.32 16.4315 137.713 17.9505 138.26 19.6387L139.05 19.3653C138.416 17.4089 136.839 15.7422 134.727 14.5706C132.611 13.3965 129.929 12.7007 127.021 12.7007V13.5618ZM115.779 19.6443C116.325 17.9548 117.718 16.4349 119.705 15.331C121.688 14.2296 124.234 13.5618 127.021 13.5618V12.7007C124.111 12.7007 121.427 13.3974 119.311 14.5724C117.198 15.7452 115.621 17.4136 114.989 19.3718L115.78 19.6443H115.779ZM115.75 19.5001C115.75 17.4261 116.949 15.4993 118.984 14.0716C121.018 12.6461 123.851 11.7501 127 11.7501V10.889C123.706 10.889 120.705 11.8246 118.517 13.3591C116.33 14.8931 114.917 17.0558 114.917 19.5001H115.75ZM127 11.7501C130.15 11.7501 132.982 12.6456 135.015 14.0716C137.051 15.4993 138.25 17.4261 138.25 19.5001H139.083C139.083 17.0558 137.67 14.8927 135.483 13.3591C133.295 11.8246 130.295 10.889 127 10.889V11.7501ZM114.99 19.3718C115.02 19.2816 115.08 19.2054 115.159 19.1565C115.238 19.1075 115.331 19.0891 115.422 19.1045C115.513 19.1199 115.596 19.168 115.656 19.2404C115.716 19.3128 115.749 19.4048 115.75 19.5001H114.917C114.917 19.6096 114.955 19.7156 115.024 19.7986C115.093 19.8816 115.189 19.9361 115.294 19.9521C115.475 19.9806 115.702 19.8858 115.78 19.6443L114.99 19.3718ZM138.26 19.6387C138.418 20.1231 139.083 19.9788 139.083 19.5001H138.25C138.25 19.0351 138.898 18.8934 139.051 19.3653L138.26 19.6387Z" fill="#6A462F"/>
<path fill-rule="evenodd" clip-rule="evenodd" d="M137.417 19.4999C137.417 19.4999 132.753 22.0833 127 22.0833C121.267 22.0833 116.615 19.5171 116.583 19.4999C116.606 19.5124 118.929 20.7916 121.792 20.7916C124.668 20.7916 127 19.4999 127 19.4999C127 19.4999 129.332 18.2083 132.208 18.2083C135.085 18.2083 137.417 19.4999 137.417 19.4999Z" fill="#6A462F"/>
<path d="M137.417 19.5L137.613 19.8793C137.68 19.8425 137.735 19.7878 137.774 19.721C137.813 19.6542 137.833 19.5779 137.833 19.5C137.833 19.4222 137.813 19.3458 137.774 19.279C137.735 19.2122 137.68 19.1575 137.613 19.1207L137.417 19.5ZM116.583 19.5L116.78 19.1203C116.682 19.0664 116.568 19.0548 116.462 19.088C116.357 19.1211 116.268 19.1963 116.216 19.297C116.164 19.3977 116.152 19.5157 116.184 19.625C116.217 19.7343 116.289 19.8259 116.387 19.8798L116.583 19.5ZM127 19.5L126.803 19.1207L127 19.5ZM127 22.5139C129.934 22.5139 132.584 21.8556 134.497 21.2007C135.267 20.9378 136.025 20.6362 136.768 20.297C137.033 20.1753 137.295 20.0468 137.553 19.9116L137.597 19.8884L137.608 19.8824L137.612 19.8802H137.613V19.8798L137.417 19.5C137.22 19.1207 137.22 19.1203 137.22 19.1203H137.22L137.218 19.1216L137.209 19.1263L137.172 19.1461C137.122 19.1729 137.071 19.1992 137.021 19.2249C136.825 19.324 136.628 19.4192 136.429 19.5104C135.712 19.8379 134.979 20.1291 134.235 20.3831C132.377 21.0195 129.818 21.6528 127 21.6528V22.5139ZM116.387 19.8798C116.437 19.9073 121.162 22.5139 127 22.5139V21.6528C121.371 21.6528 116.794 19.128 116.78 19.1203L116.387 19.8798ZM121.792 20.3611C120.418 20.3611 119.167 20.0537 118.253 19.7416C117.341 19.4303 116.776 19.1186 116.78 19.1203L116.387 19.8798C116.427 19.9022 118.825 21.2222 121.791 21.2222V20.3611H121.792ZM127 19.5C126.803 19.1207 126.803 19.1203 126.803 19.1203H126.803L126.799 19.1224C126.77 19.1386 126.74 19.1542 126.71 19.1694C126.645 19.2025 126.548 19.2503 126.421 19.3084C126.069 19.4694 125.709 19.6125 125.343 19.7373C124.428 20.0507 123.172 20.3611 121.792 20.3611V21.2222C123.288 21.2222 124.636 20.8868 125.606 20.5549C125.997 20.4211 126.382 20.2676 126.76 20.0951C126.896 20.0325 127.031 19.9665 127.164 19.897L127.187 19.8849C127.19 19.8832 127.192 19.8824 127.193 19.8811L127.196 19.8802L127.196 19.8798L127 19.5ZM127 19.5L127.197 19.8798L127.201 19.8776C127.23 19.8615 127.26 19.8458 127.29 19.8307C127.355 19.7975 127.452 19.7498 127.578 19.6916C127.832 19.5754 128.2 19.4191 128.656 19.2628C129.572 18.9493 130.828 18.6389 132.208 18.6389V17.7778C130.712 17.7778 129.364 18.1132 128.394 18.4452C128.003 18.579 127.617 18.7325 127.24 18.905C127.096 18.9712 126.954 19.0412 126.813 19.1151L126.806 19.119L126.804 19.1198L126.803 19.1203L127 19.5ZM132.208 18.6389C133.588 18.6389 134.845 18.9493 135.76 19.2632C136.126 19.3879 136.486 19.5308 136.838 19.6916C136.965 19.7503 137.092 19.8123 137.216 19.8776L137.22 19.8793L137.417 19.5L137.613 19.1203H137.612C137.612 19.1194 137.611 19.1194 137.61 19.119C137.609 19.1177 137.606 19.1168 137.604 19.1151L137.581 19.1026C137.561 19.0923 137.532 19.0768 137.495 19.0583C137.421 19.0208 137.314 18.9679 137.177 18.905C136.799 18.7326 136.414 18.5793 136.023 18.4456C135.052 18.1132 133.704 17.7778 132.208 17.7778V18.6389Z" fill="#6A462F"/>
<path d="M129.969 7.875C129.906 7.87505 129.844 7.8649 129.787 7.84537C129.731 7.82584 129.682 7.79747 129.644 7.7625L129.313 7.45707C128.999 7.16754 128.779 6.8348 128.667 6.4813C128.555 6.1278 128.553 5.76176 128.663 5.40788L129.261 3.474C129.347 3.19875 129.346 2.91403 129.258 2.63907C129.171 2.36411 129 2.10531 128.756 1.88016L128.425 1.575C128.393 1.54545 128.37 1.51183 128.356 1.47605C128.343 1.44027 128.34 1.40304 128.348 1.36648C128.355 1.32991 128.373 1.29474 128.4 1.26296C128.428 1.23118 128.464 1.20341 128.506 1.18125C128.549 1.15909 128.597 1.14297 128.649 1.1338C128.701 1.12463 128.755 1.1226 128.807 1.12783C128.86 1.13305 128.911 1.14542 128.957 1.16424C129.003 1.18306 129.043 1.20795 129.075 1.2375L129.406 1.54294C129.72 1.83243 129.94 2.16512 130.052 2.51857C130.164 2.87202 130.166 3.23801 130.056 3.59185L129.457 5.52572C129.372 5.80097 129.373 6.08569 129.46 6.36065C129.548 6.63561 129.719 6.89441 129.963 7.11956L130.294 7.425C130.339 7.46677 130.367 7.51643 130.373 7.56842C130.38 7.62042 130.366 7.6727 130.332 7.71941C130.299 7.76611 130.247 7.80541 130.183 7.83289C130.118 7.86037 130.045 7.87495 129.969 7.875ZM127.938 7.875C127.875 7.87505 127.813 7.8649 127.756 7.84537C127.7 7.82584 127.651 7.79747 127.613 7.7625L127.282 7.45707C126.968 7.16754 126.748 6.8348 126.636 6.4813C126.524 6.1278 126.522 5.76176 126.632 5.40788L127.23 3.474C127.316 3.19875 127.315 2.91403 127.227 2.63907C127.14 2.36411 126.969 2.10531 126.724 1.88016L126.394 1.575C126.362 1.54545 126.338 1.51183 126.325 1.47605C126.312 1.44027 126.309 1.40304 126.317 1.36648C126.324 1.32991 126.342 1.29474 126.369 1.26296C126.396 1.23118 126.432 1.20341 126.475 1.18125C126.518 1.15909 126.566 1.14297 126.618 1.1338C126.67 1.12463 126.723 1.1226 126.776 1.12783C126.829 1.13305 126.88 1.14542 126.926 1.16424C126.972 1.18306 127.012 1.20795 127.044 1.2375L127.375 1.54294C127.688 1.83243 127.909 2.16512 128.021 2.51857C128.133 2.87202 128.134 3.23801 128.025 3.59185L127.426 5.52572C127.341 5.80097 127.342 6.08569 127.429 6.36065C127.516 6.63561 127.688 6.89441 127.932 7.11956L128.262 7.425C128.308 7.46677 128.335 7.51643 128.342 7.56842C128.349 7.62042 128.335 7.6727 128.301 7.71941C128.267 7.76611 128.215 7.80541 128.151 7.83289C128.087 7.86037 128.013 7.87495 127.938 7.875ZM125.907 7.875C125.844 7.87505 125.781 7.8649 125.725 7.84537C125.669 7.82584 125.619 7.79747 125.582 7.7625L125.251 7.45707C124.937 7.16754 124.717 6.8348 124.604 6.4813C124.492 6.1278 124.491 5.76176 124.601 5.40788L125.199 3.474C125.284 3.19875 125.283 2.91403 125.196 2.63907C125.109 2.36411 124.937 2.10531 124.693 1.88016L124.362 1.575C124.33 1.54545 124.307 1.51183 124.294 1.47605C124.281 1.44027 124.278 1.40304 124.285 1.36648C124.293 1.32991 124.311 1.29474 124.338 1.26296C124.365 1.23118 124.401 1.20341 124.444 1.18125C124.486 1.15909 124.535 1.14297 124.587 1.1338C124.638 1.12463 124.692 1.1226 124.745 1.12783C124.798 1.13305 124.849 1.14542 124.894 1.16424C124.94 1.18306 124.98 1.20795 125.013 1.2375L125.343 1.54294C125.657 1.83241 125.877 2.16509 125.989 2.51854C126.102 2.87199 126.103 3.23799 125.994 3.59185L125.395 5.52572C125.309 5.80097 125.31 6.08569 125.398 6.36065C125.485 6.63561 125.656 6.89441 125.901 7.11956L126.231 7.425C126.276 7.46677 126.304 7.51643 126.311 7.56842C126.318 7.62042 126.303 7.6727 126.27 7.71941C126.236 7.76611 126.184 7.80541 126.12 7.83289C126.056 7.86037 125.982 7.87495 125.907 7.875ZM123.875 7.875C123.812 7.87505 123.75 7.8649 123.694 7.84537C123.637 7.82584 123.588 7.79747 123.55 7.7625L123.219 7.45707C122.906 7.16754 122.685 6.8348 122.573 6.4813C122.461 6.1278 122.46 5.76176 122.569 5.40788L123.168 3.474C123.253 3.19875 123.252 2.91403 123.165 2.63907C123.077 2.36411 122.906 2.10531 122.662 1.88016L122.331 1.575C122.299 1.54545 122.276 1.51183 122.263 1.47605C122.249 1.44027 122.247 1.40304 122.254 1.36648C122.262 1.32991 122.28 1.29474 122.307 1.26296C122.334 1.23118 122.37 1.20341 122.412 1.18125C122.455 1.15909 122.504 1.14297 122.555 1.1338C122.607 1.12463 122.661 1.1226 122.714 1.12783C122.767 1.13305 122.817 1.14542 122.863 1.16424C122.909 1.18306 122.949 1.20795 122.981 1.2375L123.312 1.54294C123.626 1.83243 123.846 2.16512 123.958 2.51857C124.071 2.87202 124.072 3.23801 123.962 3.59185L123.364 5.52572C123.278 5.80097 123.279 6.08569 123.367 6.36065C123.454 6.63561 123.625 6.89441 123.869 7.11956L124.2 7.425C124.245 7.46677 124.273 7.51643 124.28 7.56842C124.286 7.62042 124.272 7.6727 124.238 7.71941C124.205 7.76611 124.153 7.80541 124.089 7.83289C124.025 7.86037 123.951 7.87495 123.875 7.875ZM121.844 7.875C121.781 7.87509 121.719 7.86496 121.662 7.84543C121.606 7.8259 121.557 7.7975 121.519 7.7625L121.188 7.45707C120.874 7.16754 120.654 6.8348 120.541 6.4813C120.429 6.1278 120.428 5.76176 120.538 5.40788L121.136 3.474C121.222 3.19875 121.221 2.91403 121.133 2.63907C121.046 2.36411 120.875 2.10531 120.631 1.88016L120.3 1.575C120.268 1.54545 120.245 1.51183 120.231 1.47605C120.218 1.44027 120.215 1.40304 120.223 1.36648C120.238 1.29263 120.295 1.22601 120.381 1.18125C120.467 1.1365 120.576 1.11728 120.682 1.12783C120.789 1.13838 120.885 1.17783 120.95 1.2375L121.281 1.54294C121.595 1.83243 121.815 2.16512 121.927 2.51857C122.039 2.87202 122.041 3.23801 121.931 3.59185L121.332 5.52572C121.247 5.80097 121.248 6.08569 121.335 6.36065C121.423 6.63561 121.594 6.89441 121.838 7.11956L122.169 7.425C122.214 7.46677 122.242 7.51643 122.248 7.56842C122.255 7.62042 122.241 7.6727 122.207 7.71941C122.174 7.76611 122.122 7.80541 122.058 7.83289C121.993 7.86037 121.92 7.87495 121.844 7.875Z" fill="#F8F8F8"/>
<path d="M104.657 7.875C104.584 7.87504 104.512 7.8649 104.447 7.84537C104.382 7.82584 104.325 7.79746 104.282 7.7625L103.9 7.45706C103.538 7.16754 103.283 6.8348 103.154 6.4813C103.025 6.1278 103.023 5.76176 103.15 5.40788L103.84 3.474C103.939 3.19875 103.937 2.91403 103.837 2.63907C103.736 2.36411 103.538 2.10531 103.257 1.88016L102.875 1.575C102.838 1.54545 102.811 1.51183 102.796 1.47605C102.781 1.44027 102.777 1.40304 102.786 1.36648C102.795 1.32991 102.815 1.29474 102.847 1.26296C102.878 1.23118 102.92 1.20341 102.969 1.18125C103.018 1.15909 103.074 1.14297 103.134 1.1338C103.193 1.12463 103.255 1.1226 103.316 1.12783C103.377 1.13305 103.436 1.14542 103.489 1.16424C103.542 1.18306 103.588 1.20795 103.625 1.2375L104.007 1.54294C104.369 1.83243 104.623 2.16512 104.753 2.51857C104.882 2.87202 104.883 3.23801 104.757 3.59185L104.066 5.52572C103.968 5.80097 103.969 6.08569 104.07 6.36065C104.17 6.63561 104.368 6.89441 104.65 7.11956L105.031 7.425C105.083 7.46677 105.115 7.51643 105.123 7.56842C105.131 7.62042 105.114 7.6727 105.076 7.7194C105.037 7.76611 104.977 7.80541 104.903 7.83289C104.829 7.86037 104.744 7.87495 104.657 7.875ZM102.313 7.875C102.24 7.87504 102.168 7.8649 102.103 7.84537C102.038 7.82584 101.982 7.79746 101.938 7.7625L101.556 7.45706C101.194 7.16754 100.94 6.8348 100.81 6.4813C100.681 6.1278 100.679 5.76176 100.806 5.40788L101.496 3.474C101.595 3.19875 101.594 2.91403 101.493 2.63907C101.392 2.36411 101.194 2.10531 100.913 1.88016L100.531 1.575C100.494 1.54545 100.467 1.51183 100.452 1.47605C100.437 1.44027 100.434 1.40304 100.442 1.36648C100.451 1.32991 100.472 1.29474 100.503 1.26296C100.534 1.23118 100.576 1.20341 100.625 1.18125C100.674 1.15909 100.73 1.14297 100.79 1.1338C100.85 1.12463 100.912 1.1226 100.973 1.12783C101.033 1.13305 101.092 1.14542 101.145 1.16424C101.198 1.18306 101.244 1.20795 101.281 1.2375L101.663 1.54294C102.025 1.83243 102.279 2.16512 102.409 2.51857C102.538 2.87202 102.54 3.23801 102.413 3.59185L101.722 5.52572C101.624 5.80097 101.625 6.08569 101.726 6.36065C101.826 6.63561 102.024 6.89441 102.306 7.11956L102.688 7.425C102.74 7.46677 102.772 7.51643 102.779 7.56842C102.787 7.62042 102.771 7.6727 102.732 7.7194C102.693 7.76611 102.633 7.80541 102.559 7.83289C102.485 7.86037 102.4 7.87495 102.313 7.875ZM99.9692 7.875C99.8964 7.87504 99.8246 7.8649 99.7595 7.84537C99.6944 7.82584 99.6378 7.79746 99.5942 7.7625L99.2122 7.45706C98.8502 7.16754 98.596 6.8348 98.4666 6.4813C98.3372 6.1278 98.3357 5.76176 98.4622 5.40788L99.1527 3.474C99.2511 3.19875 99.2499 2.91403 99.1492 2.63907C99.0486 2.36411 98.8507 2.10531 98.5691 1.88016L98.1875 1.575C98.1506 1.54545 98.1237 1.51183 98.1084 1.47605C98.0931 1.44027 98.0898 1.40304 98.0985 1.36648C98.1072 1.32991 98.1278 1.29474 98.1592 1.26296C98.1905 1.23118 98.232 1.20341 98.2812 1.18125C98.3305 1.15909 98.3865 1.14297 98.4462 1.1338C98.5058 1.12463 98.5679 1.1226 98.6288 1.12783C98.6897 1.13305 98.7484 1.14542 98.8013 1.16424C98.8543 1.18306 98.9006 1.20795 98.9375 1.2375L99.3191 1.54294C99.681 1.83241 99.9353 2.16509 100.065 2.51854C100.194 2.87199 100.196 3.23799 100.07 3.59185L99.3786 5.52572C99.2802 5.80097 99.2813 6.08569 99.382 6.36065C99.4827 6.63561 99.6805 6.89441 99.9622 7.11956L100.344 7.425C100.396 7.46677 100.428 7.51643 100.436 7.56842C100.443 7.62042 100.427 7.6727 100.388 7.7194C100.349 7.76611 100.289 7.80541 100.215 7.83289C100.142 7.86037 100.056 7.87495 99.9692 7.875ZM97.6255 7.875C97.5527 7.87504 97.4809 7.8649 97.4158 7.84537C97.3507 7.82584 97.2941 7.79746 97.2505 7.7625L96.8684 7.45706C96.5065 7.16754 96.2522 6.8348 96.1228 6.4813C95.9935 6.1278 95.992 5.76176 96.1184 5.40788L96.8089 3.474C96.9073 3.19875 96.9062 2.91403 96.8055 2.63907C96.7048 2.36411 96.507 2.10531 96.2253 1.88016L95.8438 1.575C95.8068 1.54545 95.7799 1.51183 95.7647 1.47605C95.7494 1.44027 95.746 1.40304 95.7547 1.36648C95.7634 1.32991 95.784 1.29474 95.8154 1.26296C95.8468 1.23118 95.8883 1.20341 95.9375 1.18125C95.9867 1.15909 96.0428 1.14297 96.1024 1.1338C96.162 1.12463 96.2241 1.1226 96.285 1.12783C96.346 1.13305 96.4046 1.14542 96.4576 1.16424C96.5105 1.18306 96.5568 1.20795 96.5938 1.2375L96.9758 1.54294C97.3377 1.83243 97.5919 2.16512 97.7213 2.51857C97.8507 2.87202 97.8522 3.23801 97.7258 3.59185L97.0348 5.52572C96.9364 5.80097 96.9376 6.08569 97.0383 6.36065C97.139 6.63561 97.3368 6.89441 97.6184 7.11956L98 7.425C98.0522 7.46677 98.084 7.51643 98.0918 7.56842C98.0997 7.62042 98.0832 7.6727 98.0444 7.7194C98.0055 7.76611 97.9457 7.80541 97.8717 7.83289C97.7978 7.86037 97.7125 7.87495 97.6255 7.875ZM95.2817 7.875C95.2089 7.87509 95.137 7.86496 95.0718 7.84543C95.0066 7.8259 94.9499 7.7975 94.9062 7.7625L94.5242 7.45706C94.1623 7.16754 93.908 6.8348 93.7786 6.4813C93.6492 6.1278 93.6477 5.76176 93.7742 5.40788L94.4652 3.474C94.5636 3.19875 94.5624 2.91403 94.4617 2.63907C94.361 2.36411 94.1632 2.10531 93.8816 1.88016L93.5 1.575C93.4631 1.54545 93.4362 1.51183 93.4209 1.47605C93.4056 1.44027 93.4023 1.40304 93.411 1.36648C93.4285 1.29263 93.4943 1.22601 93.5938 1.18125C93.6932 1.1365 93.8182 1.11728 93.9413 1.12783C94.0644 1.13838 94.1754 1.17783 94.25 1.2375L94.632 1.54294C94.9939 1.83243 95.2481 2.16512 95.3775 2.51857C95.5069 2.87202 95.5084 3.23801 95.382 3.59185L94.6911 5.52572C94.5927 5.80097 94.5938 6.08569 94.6945 6.36065C94.7952 6.63561 94.993 6.89441 95.2747 7.11956L95.6563 7.425C95.7085 7.46677 95.7403 7.51643 95.7481 7.56842C95.7559 7.62042 95.7395 7.6727 95.7006 7.7194C95.6617 7.76611 95.602 7.80541 95.528 7.83289C95.454 7.86037 95.3687 7.87495 95.2817 7.875Z" fill="#F24E1E"/>
<path d="M111.555 19.9999C111.555 15.3362 106.158 11.5555 99.4999 11.5555C92.8418 11.5555 87.4443 15.3362 87.4443 19.9999C87.4443 24.6636 92.8418 28.4443 99.4999 28.4443C106.158 28.4443 111.555 24.6636 111.555 19.9999Z" fill="#A57939"/>
<path fill-rule="evenodd" clip-rule="evenodd" d="M111.556 19.9999C111.556 20.0066 111.546 20.0084 111.544 20.0017C110.324 16.2395 105.405 13.4257 99.5221 13.4257C93.636 13.4257 88.7143 16.243 87.4975 20.0079C87.4881 20.039 87.4446 20.0324 87.4446 19.9999C87.4446 15.3364 92.842 11.5555 99.5001 11.5555C106.158 11.5555 111.556 15.3364 111.556 19.9999Z" fill="#6A462F"/>
<path d="M111.544 20.0018L111.953 19.8609L111.544 20.0018ZM99.5216 13.8702C102.399 13.8702 105.028 14.5591 107.078 15.6946C109.131 16.8324 110.57 18.4004 111.135 20.1431L111.952 19.8609C111.297 17.8413 109.667 16.1209 107.485 14.9115C105.298 13.6995 102.527 12.9813 99.5216 12.9813V13.8702ZM87.9052 20.1489C88.4692 18.4049 89.9081 16.836 91.9619 15.6964C94.0113 14.5595 96.642 13.8702 99.5216 13.8702V12.9813C96.5146 12.9813 93.7413 13.7004 91.5546 14.9133C89.3716 16.124 87.742 17.8462 87.0888 19.8675L87.9056 20.1489H87.9052ZM87.875 20C87.875 17.8591 89.1137 15.8702 91.217 14.3964C93.3185 12.9249 96.2459 12 99.5 12V11.1111C96.0965 11.1111 92.9956 12.0769 90.7339 13.6609C88.4739 15.2444 87.0139 17.4769 87.0139 20H87.875ZM99.5 12C102.755 12 105.682 12.9244 107.783 14.3964C109.886 15.8702 111.125 17.8591 111.125 20H111.986C111.986 17.4769 110.526 15.244 108.266 13.6609C106.005 12.0769 102.904 11.1111 99.5 11.1111V12ZM87.0893 19.8675C87.1203 19.7745 87.1821 19.6958 87.2639 19.6453C87.3457 19.5948 87.4422 19.5758 87.5363 19.5916C87.6303 19.6075 87.7159 19.6572 87.7779 19.7319C87.8399 19.8066 87.8743 19.9016 87.875 20H87.0139C87.0138 20.1131 87.0531 20.2225 87.1246 20.3082C87.1961 20.3938 87.2952 20.4501 87.4036 20.4666C87.5913 20.496 87.8255 20.3982 87.906 20.1489L87.0893 19.8675ZM111.136 20.1431C111.298 20.6431 111.986 20.4942 111.986 20H111.125C111.125 19.52 111.795 19.3738 111.953 19.8609L111.136 20.1431Z" fill="#6A462F"/>
<path fill-rule="evenodd" clip-rule="evenodd" d="M110.264 20.0001C110.264 20.0001 105.445 22.6667 99.5 22.6667C93.5755 22.6667 88.7688 20.0179 88.7361 20.0001C88.7593 20.013 91.1601 21.3334 94.118 21.3334C97.0902 21.3334 99.5 20.0001 99.5 20.0001C99.5 20.0001 101.909 18.6667 104.882 18.6667C107.854 18.6667 110.264 20.0001 110.264 20.0001Z" fill="#6A462F"/>
<path d="M110.264 20L110.467 20.3915C110.536 20.3535 110.593 20.297 110.633 20.2281C110.673 20.1591 110.694 20.0803 110.694 20C110.694 19.9196 110.673 19.8408 110.633 19.7719C110.593 19.7029 110.536 19.6464 110.467 19.6084L110.264 20ZM88.736 20L88.9388 19.608C88.8381 19.5524 88.7201 19.5404 88.6108 19.5746C88.5015 19.6088 88.4099 19.6865 88.356 19.7904C88.3022 19.8944 88.2906 20.0162 88.3237 20.129C88.3569 20.2418 88.4321 20.3364 88.5328 20.392L88.736 20ZM99.4999 20L99.2962 19.6084L99.4999 20ZM99.4999 23.1111C102.532 23.1111 105.27 22.4315 107.246 21.7555C108.043 21.4841 108.826 21.1728 109.593 20.8226C109.867 20.697 110.138 20.5643 110.405 20.4249L110.45 20.4009L110.462 20.3946L110.465 20.3924H110.467V20.392L110.264 20C110.06 19.6084 110.06 19.608 110.061 19.608H110.06L110.058 19.6093L110.049 19.6142L110.011 19.6346C109.959 19.6623 109.907 19.6894 109.855 19.716C109.653 19.8183 109.449 19.9165 109.243 20.0106C108.502 20.3487 107.745 20.6494 106.976 20.9115C105.056 21.5684 102.412 22.2222 99.4999 22.2222V23.1111ZM88.5328 20.392C88.5844 20.4204 93.4669 23.1111 99.4999 23.1111V22.2222C93.6831 22.2222 88.9534 19.616 88.9392 19.608L88.5328 20.392ZM94.1179 20.8889C92.6984 20.8889 91.4059 20.5715 90.4612 20.2493C89.5183 19.928 88.9353 19.6062 88.9388 19.608L88.5332 20.392C88.5745 20.4151 91.052 21.7778 94.1175 21.7778V20.8889H94.1179ZM99.4999 20C99.2962 19.6084 99.2962 19.608 99.2967 19.608H99.2962L99.2924 19.6102C99.2619 19.6269 99.2312 19.643 99.2002 19.6586C99.1331 19.6929 99.0323 19.7422 98.9018 19.8022C98.5377 19.9683 98.166 20.116 97.788 20.2449C96.8421 20.5684 95.5439 20.8889 94.1179 20.8889V21.7778C95.6636 21.7778 97.0565 21.4315 98.0588 21.0889C98.4636 20.9507 98.8616 20.7923 99.2515 20.6142C99.3923 20.5496 99.5315 20.4815 99.6691 20.4098L99.6932 20.3973C99.6958 20.3955 99.6984 20.3946 99.6997 20.3933L99.7018 20.3924L99.7027 20.392L99.4999 20ZM99.4999 20L99.7031 20.392L99.7074 20.3898C99.7379 20.3731 99.7686 20.3569 99.7996 20.3413C99.8663 20.3071 99.967 20.2578 100.097 20.1978C100.359 20.0778 100.74 19.9164 101.211 19.7551C102.157 19.4315 103.456 19.1111 104.882 19.1111V18.2222C103.336 18.2222 101.943 18.5684 100.941 18.9111C100.536 19.0492 100.138 19.2076 99.7479 19.3858C99.599 19.454 99.4518 19.5264 99.3066 19.6026L99.2997 19.6066L99.2975 19.6075L99.2967 19.608L99.4999 20ZM104.882 19.1111C106.308 19.1111 107.606 19.4315 108.552 19.7555C108.93 19.8842 109.302 20.0318 109.666 20.1978C109.797 20.2583 109.928 20.3223 110.056 20.3898L110.06 20.3915L110.264 20L110.467 19.608H110.466C110.465 19.6071 110.464 19.6071 110.464 19.6066C110.462 19.6053 110.46 19.6044 110.457 19.6026L110.433 19.5898C110.412 19.5791 110.383 19.5631 110.345 19.544C110.268 19.5053 110.157 19.4506 110.016 19.3858C109.626 19.2078 109.228 19.0495 108.823 18.9115C107.82 18.5684 106.428 18.2222 104.882 18.2222V19.1111Z" fill="#6A462F"/>
<path d="M48.6567 7.875C48.5839 7.87504 48.5121 7.8649 48.447 7.84537C48.3819 7.82584 48.3253 7.79746 48.2817 7.7625L47.8997 7.45706C47.5377 7.16754 47.2835 6.8348 47.1541 6.4813C47.0247 6.1278 47.0232 5.76176 47.1497 5.40788L47.8402 3.474C47.9386 3.19875 47.9374 2.91403 47.8367 2.63907C47.736 2.36411 47.5382 2.10531 47.2566 1.88016L46.875 1.575C46.8381 1.54545 46.8112 1.51183 46.7959 1.47605C46.7806 1.44027 46.7773 1.40304 46.786 1.36648C46.7947 1.32991 46.8153 1.29474 46.8467 1.26296C46.878 1.23118 46.9195 1.20341 46.9688 1.18125C47.018 1.15909 47.074 1.14297 47.1337 1.1338C47.1933 1.12463 47.2554 1.1226 47.3163 1.12783C47.3772 1.13305 47.4359 1.14542 47.4888 1.16424C47.5418 1.18306 47.5881 1.20795 47.625 1.2375L48.007 1.54294C48.3689 1.83243 48.6231 2.16512 48.7525 2.51857C48.8819 2.87202 48.8834 3.23801 48.757 3.59185L48.0661 5.52572C47.9677 5.80097 47.9688 6.08569 48.0695 6.36065C48.1702 6.63561 48.368 6.89441 48.6497 7.11956L49.0312 7.425C49.0835 7.46677 49.1153 7.51643 49.1231 7.56842C49.1309 7.62042 49.1145 7.6727 49.0756 7.7194C49.0367 7.76611 48.977 7.80541 48.903 7.83289C48.829 7.86037 48.7437 7.87495 48.6567 7.875ZM46.313 7.875C46.2402 7.87504 46.1684 7.8649 46.1033 7.84537C46.0382 7.82584 45.9816 7.79746 45.938 7.7625L45.5559 7.45706C45.194 7.16754 44.9397 6.8348 44.8103 6.4813C44.681 6.1278 44.6795 5.76176 44.8059 5.40788L45.4964 3.474C45.5948 3.19875 45.5937 2.91403 45.493 2.63907C45.3923 2.36411 45.1945 2.10531 44.9128 1.88016L44.5313 1.575C44.4943 1.54545 44.4674 1.51183 44.4522 1.47605C44.4369 1.44027 44.4335 1.40304 44.4422 1.36648C44.4509 1.32991 44.4715 1.29474 44.5029 1.26296C44.5343 1.23118 44.5758 1.20341 44.625 1.18125C44.6742 1.15909 44.7303 1.14297 44.7899 1.1338C44.8495 1.12463 44.9116 1.1226 44.9725 1.12783C45.0335 1.13305 45.0921 1.14542 45.1451 1.16424C45.198 1.18306 45.2443 1.20795 45.2812 1.2375L45.6633 1.54294C46.0252 1.83243 46.2794 2.16512 46.4088 2.51857C46.5382 2.87202 46.5397 3.23801 46.4133 3.59185L45.7223 5.52572C45.6239 5.80097 45.6251 6.08569 45.7258 6.36065C45.8265 6.63561 46.0243 6.89441 46.3059 7.11956L46.6875 7.425C46.7397 7.46677 46.7715 7.51643 46.7793 7.56842C46.7872 7.62042 46.7707 7.6727 46.7319 7.7194C46.693 7.76611 46.6332 7.80541 46.5592 7.83289C46.4853 7.86037 46.4 7.87495 46.313 7.875ZM43.9692 7.875C43.8964 7.87504 43.8246 7.8649 43.7595 7.84537C43.6944 7.82584 43.6378 7.79746 43.5942 7.7625L43.2122 7.45706C42.8502 7.16754 42.596 6.8348 42.4666 6.4813C42.3372 6.1278 42.3357 5.76176 42.4622 5.40788L43.1527 3.474C43.2511 3.19875 43.2499 2.91403 43.1492 2.63907C43.0486 2.36411 42.8507 2.10531 42.5691 1.88016L42.1875 1.575C42.1506 1.54545 42.1237 1.51183 42.1084 1.47605C42.0931 1.44027 42.0898 1.40304 42.0985 1.36648C42.1072 1.32991 42.1278 1.29474 42.1592 1.26296C42.1905 1.23118 42.232 1.20341 42.2812 1.18125C42.3305 1.15909 42.3865 1.14297 42.4462 1.1338C42.5058 1.12463 42.5679 1.1226 42.6288 1.12783C42.6897 1.13305 42.7484 1.14542 42.8013 1.16424C42.8543 1.18306 42.9006 1.20795 42.9375 1.2375L43.3191 1.54294C43.681 1.83241 43.9353 2.16509 44.0648 2.51854C44.1943 2.87199 44.1959 3.23799 44.0695 3.59185L43.3786 5.52572C43.2802 5.80097 43.2813 6.08569 43.382 6.36065C43.4827 6.63561 43.6805 6.89441 43.9622 7.11956L44.3438 7.425C44.396 7.46677 44.4278 7.51643 44.4356 7.56842C44.4434 7.62042 44.427 7.6727 44.3881 7.7194C44.3492 7.76611 44.2895 7.80541 44.2155 7.83289C44.1415 7.86037 44.0562 7.87495 43.9692 7.875ZM41.6255 7.875C41.5527 7.87504 41.4809 7.8649 41.4158 7.84537C41.3507 7.82584 41.2941 7.79746 41.2505 7.7625L40.8684 7.45706C40.5065 7.16754 40.2522 6.8348 40.1228 6.4813C39.9935 6.1278 39.992 5.76176 40.1184 5.40788L40.8089 3.474C40.9073 3.19875 40.9062 2.91403 40.8055 2.63907C40.7048 2.36411 40.507 2.10531 40.2253 1.88016L39.8438 1.575C39.8068 1.54545 39.7799 1.51183 39.7647 1.47605C39.7494 1.44027 39.746 1.40304 39.7547 1.36648C39.7634 1.32991 39.784 1.29474 39.8154 1.26296C39.8468 1.23118 39.8883 1.20341 39.9375 1.18125C39.9867 1.15909 40.0428 1.14297 40.1024 1.1338C40.162 1.12463 40.2241 1.1226 40.285 1.12783C40.346 1.13305 40.4046 1.14542 40.4576 1.16424C40.5105 1.18306 40.5568 1.20795 40.5938 1.2375L40.9758 1.54294C41.3377 1.83243 41.5919 2.16512 41.7213 2.51857C41.8507 2.87202 41.8522 3.23801 41.7258 3.59185L41.0348 5.52572C40.9364 5.80097 40.9376 6.08569 41.0383 6.36065C41.139 6.63561 41.3368 6.89441 41.6184 7.11956L42 7.425C42.0522 7.46677 42.084 7.51643 42.0918 7.56842C42.0997 7.62042 42.0832 7.6727 42.0444 7.7194C42.0055 7.76611 41.9457 7.80541 41.8717 7.83289C41.7978 7.86037 41.7125 7.87495 41.6255 7.875ZM39.2817 7.875C39.2089 7.87509 39.137 7.86496 39.0718 7.84543C39.0066 7.8259 38.9499 7.7975 38.9062 7.7625L38.5242 7.45706C38.1623 7.16754 37.908 6.8348 37.7786 6.4813C37.6492 6.1278 37.6477 5.76176 37.7742 5.40788L38.4652 3.474C38.5636 3.19875 38.5624 2.91403 38.4617 2.63907C38.361 2.36411 38.1632 2.10531 37.8816 1.88016L37.5 1.575C37.4631 1.54545 37.4362 1.51183 37.4209 1.47605C37.4056 1.44027 37.4023 1.40304 37.411 1.36648C37.4285 1.29263 37.4943 1.22601 37.5938 1.18125C37.6932 1.1365 37.8182 1.11728 37.9413 1.12783C38.0644 1.13838 38.1754 1.17783 38.25 1.2375L38.632 1.54294C38.9939 1.83243 39.2481 2.16512 39.3775 2.51857C39.5069 2.87202 39.5084 3.23801 39.382 3.59185L38.6911 5.52572C38.5927 5.80097 38.5938 6.08569 38.6945 6.36065C38.7952 6.63561 38.993 6.89441 39.2747 7.11956L39.6563 7.425C39.7085 7.46677 39.7403 7.51643 39.7481 7.56842C39.7559 7.62042 39.7395 7.6727 39.7006 7.7194C39.6617 7.76611 39.602 7.80541 39.528 7.83289C39.454 7.86037 39.3687 7.87495 39.2817 7.875Z" fill="#F24E1E"/>
<path d="M55.5554 19.9999C55.5554 15.3362 50.158 11.5555 43.4999 11.5555C36.8418 11.5555 31.4443 15.3362 31.4443 19.9999C31.4443 24.6636 36.8418 28.4443 43.4999 28.4443C50.158 28.4443 55.5554 24.6636 55.5554 19.9999Z" fill="#A57939"/>
<path fill-rule="evenodd" clip-rule="evenodd" d="M55.5557 19.9999C55.5557 20.0066 55.5462 20.0084 55.5445 20.0017C54.3243 16.2395 49.4048 13.4257 43.5221 13.4257C37.636 13.4257 32.7143 16.243 31.4975 20.0079C31.4881 20.039 31.4446 20.0324 31.4446 19.9999C31.4446 15.3364 36.842 11.5555 43.5001 11.5555C50.1582 11.5555 55.5557 15.3364 55.5557 19.9999Z" fill="#6A462F"/>
<path d="M55.5444 20.0018L55.9526 19.8609L55.5444 20.0018ZM43.5216 13.8702C46.399 13.8702 49.0284 14.5591 51.0778 15.6946C53.1311 16.8324 54.5705 18.4004 55.1354 20.1431L55.9521 19.8609C55.2968 17.8413 53.6667 16.1209 51.4847 14.9115C49.2983 13.6995 46.5268 12.9813 43.5216 12.9813V13.8702ZM31.9052 20.1489C32.4692 18.4049 33.9081 16.836 35.9619 15.6964C38.0113 14.5595 40.642 13.8702 43.5216 13.8702V12.9813C40.5146 12.9813 37.7413 13.7004 35.5546 14.9133C33.3716 16.124 31.742 17.8462 31.0888 19.8675L31.9056 20.1489H31.9052ZM31.875 20C31.875 17.8591 33.1137 15.8702 35.217 14.3964C37.3185 12.9249 40.2459 12 43.5 12V11.1111C40.0965 11.1111 36.9956 12.0769 34.7339 13.6609C32.4739 15.2444 31.0139 17.4769 31.0139 20H31.875ZM43.5 12C46.7546 12 49.6815 12.9244 51.7826 14.3964C53.8863 15.8702 55.125 17.8591 55.125 20H55.9861C55.9861 17.4769 54.5257 15.244 52.2661 13.6609C50.0049 12.0769 46.9044 11.1111 43.5 11.1111V12ZM31.0893 19.8675C31.1203 19.7745 31.1821 19.6958 31.2639 19.6453C31.3457 19.5948 31.4422 19.5758 31.5363 19.5916C31.6303 19.6075 31.7159 19.6572 31.7779 19.7319C31.8399 19.8066 31.8743 19.9016 31.875 20H31.0139C31.0138 20.1131 31.0531 20.2225 31.1246 20.3082C31.1961 20.3938 31.2952 20.4501 31.4036 20.4666C31.5913 20.496 31.8255 20.3982 31.906 20.1489L31.0893 19.8675ZM55.1358 20.1431C55.2981 20.6431 55.9861 20.4942 55.9861 20H55.125C55.125 19.52 55.7945 19.3738 55.9526 19.8609L55.1358 20.1431Z" fill="#6A462F"/>
<path fill-rule="evenodd" clip-rule="evenodd" d="M54.2639 20.0001C54.2639 20.0001 49.4447 22.6667 43.5 22.6667C37.5755 22.6667 32.7688 20.0179 32.7361 20.0001C32.7593 20.013 35.1601 21.3334 38.118 21.3334C41.0902 21.3334 43.5 20.0001 43.5 20.0001C43.5 20.0001 45.9094 18.6667 48.8819 18.6667C51.854 18.6667 54.2639 20.0001 54.2639 20.0001Z" fill="#6A462F"/>
<path d="M54.2638 20L54.467 20.3915C54.5356 20.3535 54.5929 20.297 54.6328 20.2281C54.6728 20.1591 54.6938 20.0803 54.6938 20C54.6938 19.9196 54.6728 19.8408 54.6328 19.7719C54.5929 19.7029 54.5356 19.6464 54.467 19.6084L54.2638 20ZM32.736 20L32.9388 19.608C32.8381 19.5524 32.7201 19.5404 32.6108 19.5746C32.5015 19.6088 32.4099 19.6865 32.356 19.7904C32.3022 19.8944 32.2906 20.0162 32.3237 20.129C32.3569 20.2418 32.4321 20.3364 32.5328 20.392L32.736 20ZM43.4999 20L43.2962 19.6084L43.4999 20ZM43.4999 23.1111C46.5319 23.1111 49.2702 22.4315 51.2464 21.7555C52.0428 21.4841 52.8259 21.1728 53.593 20.8226C53.8668 20.697 54.1375 20.5643 54.405 20.4249L54.4498 20.4009L54.4618 20.3946L54.4653 20.3924H54.4666V20.392L54.2638 20C54.0601 19.6084 54.0601 19.608 54.0606 19.608H54.0601L54.0584 19.6093L54.0494 19.6142L54.0106 19.6346C53.9589 19.6623 53.907 19.6894 53.8547 19.716C53.6527 19.8183 53.4487 19.9165 53.2429 20.0106C52.5018 20.3487 51.7451 20.6494 50.9756 20.9115C49.0558 21.5684 46.4122 22.2222 43.4999 22.2222V23.1111ZM32.5328 20.392C32.5844 20.4204 37.4669 23.1111 43.4999 23.1111V22.2222C37.6831 22.2222 32.9534 19.616 32.9392 19.608L32.5328 20.392ZM38.1179 20.8889C36.6984 20.8889 35.4059 20.5715 34.4612 20.2493C33.5183 19.928 32.9353 19.6062 32.9388 19.608L32.5332 20.392C32.5745 20.4151 35.052 21.7778 38.1175 21.7778V20.8889H38.1179ZM43.4999 20C43.2962 19.6084 43.2962 19.608 43.2967 19.608H43.2962L43.2924 19.6102C43.2619 19.6269 43.2312 19.643 43.2002 19.6586C43.1331 19.6929 43.0323 19.7422 42.9018 19.8022C42.5377 19.9683 42.166 20.116 41.788 20.2449C40.8421 20.5684 39.5439 20.8889 38.1179 20.8889V21.7778C39.6636 21.7778 41.0565 21.4315 42.0588 21.0889C42.4636 20.9507 42.8616 20.7923 43.2515 20.6142C43.3923 20.5496 43.5315 20.4815 43.6691 20.4098L43.6932 20.3973C43.6958 20.3955 43.6984 20.3946 43.6997 20.3933L43.7018 20.3924L43.7027 20.392L43.4999 20ZM43.4999 20L43.7031 20.392L43.7074 20.3898C43.7379 20.3731 43.7686 20.3569 43.7996 20.3413C43.8663 20.3071 43.967 20.2578 44.0975 20.1978C44.3593 20.0778 44.7399 19.9164 45.2113 19.7551C46.1573 19.4315 47.4558 19.1111 48.8818 19.1111V18.2222C47.3357 18.2222 45.9429 18.5684 44.9405 18.9111C44.5357 19.0492 44.1377 19.2076 43.7479 19.3858C43.599 19.454 43.4518 19.5264 43.3066 19.6026L43.2997 19.6066L43.2975 19.6075L43.2967 19.608L43.4999 20ZM48.8818 19.1111C50.3078 19.1111 51.606 19.4315 52.5519 19.7555C52.9299 19.8842 53.3016 20.0318 53.6657 20.1978C53.7975 20.2583 53.9277 20.3223 54.0562 20.3898L54.0601 20.3915L54.2638 20L54.467 19.608H54.4657C54.4653 19.6071 54.4644 19.6071 54.4636 19.6066C54.4623 19.6053 54.4597 19.6044 54.4571 19.6026L54.433 19.5898C54.4123 19.5791 54.3826 19.5631 54.3447 19.544C54.2681 19.5053 54.1574 19.4506 54.0158 19.3858C53.6259 19.2078 53.2279 19.0495 52.8231 18.9115C51.8199 18.5684 50.4275 18.2222 48.8818 18.2222V19.1111Z" fill="#6A462F"/>
<path d="M76.6567 7.875C76.5839 7.87504 76.5121 7.8649 76.447 7.84537C76.3819 7.82584 76.3253 7.79746 76.2817 7.7625L75.8997 7.45706C75.5377 7.16754 75.2835 6.8348 75.1541 6.4813C75.0247 6.1278 75.0232 5.76176 75.1497 5.40788L75.8402 3.474C75.9386 3.19875 75.9374 2.91403 75.8367 2.63907C75.736 2.36411 75.5382 2.10531 75.2566 1.88016L74.875 1.575C74.8381 1.54545 74.8112 1.51183 74.7959 1.47605C74.7806 1.44027 74.7773 1.40304 74.786 1.36648C74.7947 1.32991 74.8153 1.29474 74.8467 1.26296C74.878 1.23118 74.9195 1.20341 74.9688 1.18125C75.018 1.15909 75.074 1.14297 75.1337 1.1338C75.1933 1.12463 75.2554 1.1226 75.3163 1.12783C75.3772 1.13305 75.4359 1.14542 75.4888 1.16424C75.5418 1.18306 75.5881 1.20795 75.625 1.2375L76.007 1.54294C76.3689 1.83243 76.6231 2.16512 76.7525 2.51857C76.8819 2.87202 76.8834 3.23801 76.757 3.59185L76.0661 5.52572C75.9677 5.80097 75.9688 6.08569 76.0695 6.36065C76.1702 6.63561 76.368 6.89441 76.6497 7.11956L77.0312 7.425C77.0835 7.46677 77.1153 7.51643 77.1231 7.56842C77.1309 7.62042 77.1145 7.6727 77.0756 7.7194C77.0367 7.76611 76.977 7.80541 76.903 7.83289C76.829 7.86037 76.7437 7.87495 76.6567 7.875ZM74.313 7.875C74.2402 7.87504 74.1684 7.8649 74.1033 7.84537C74.0382 7.82584 73.9816 7.79746 73.938 7.7625L73.5559 7.45706C73.194 7.16754 72.9397 6.8348 72.8103 6.4813C72.681 6.1278 72.6795 5.76176 72.8059 5.40788L73.4964 3.474C73.5948 3.19875 73.5937 2.91403 73.493 2.63907C73.3923 2.36411 73.1945 2.10531 72.9128 1.88016L72.5313 1.575C72.4943 1.54545 72.4674 1.51183 72.4522 1.47605C72.4369 1.44027 72.4335 1.40304 72.4422 1.36648C72.4509 1.32991 72.4715 1.29474 72.5029 1.26296C72.5343 1.23118 72.5758 1.20341 72.625 1.18125C72.6742 1.15909 72.7303 1.14297 72.7899 1.1338C72.8495 1.12463 72.9116 1.1226 72.9725 1.12783C73.0335 1.13305 73.0921 1.14542 73.1451 1.16424C73.198 1.18306 73.2443 1.20795 73.2812 1.2375L73.6633 1.54294C74.0252 1.83243 74.2794 2.16512 74.4088 2.51857C74.5382 2.87202 74.5397 3.23801 74.4133 3.59185L73.7223 5.52572C73.6239 5.80097 73.6251 6.08569 73.7258 6.36065C73.8265 6.63561 74.0243 6.89441 74.3059 7.11956L74.6875 7.425C74.7397 7.46677 74.7715 7.51643 74.7793 7.56842C74.7872 7.62042 74.7707 7.6727 74.7319 7.7194C74.693 7.76611 74.6332 7.80541 74.5592 7.83289C74.4853 7.86037 74.4 7.87495 74.313 7.875ZM71.9692 7.875C71.8964 7.87504 71.8246 7.8649 71.7595 7.84537C71.6944 7.82584 71.6378 7.79746 71.5942 7.7625L71.2122 7.45706C70.8502 7.16754 70.596 6.8348 70.4666 6.4813C70.3372 6.1278 70.3357 5.76176 70.4622 5.40788L71.1527 3.474C71.2511 3.19875 71.2499 2.91403 71.1492 2.63907C71.0486 2.36411 70.8507 2.10531 70.5691 1.88016L70.1875 1.575C70.1506 1.54545 70.1237 1.51183 70.1084 1.47605C70.0931 1.44027 70.0898 1.40304 70.0985 1.36648C70.1072 1.32991 70.1278 1.29474 70.1592 1.26296C70.1905 1.23118 70.232 1.20341 70.2812 1.18125C70.3305 1.15909 70.3865 1.14297 70.4462 1.1338C70.5058 1.12463 70.5679 1.1226 70.6288 1.12783C70.6897 1.13305 70.7484 1.14542 70.8013 1.16424C70.8543 1.18306 70.9006 1.20795 70.9375 1.2375L71.3191 1.54294C71.681 1.83241 71.9353 2.16509 72.0648 2.51854C72.1943 2.87199 72.1959 3.23799 72.0695 3.59185L71.3786 5.52572C71.2802 5.80097 71.2813 6.08569 71.382 6.36065C71.4827 6.63561 71.6805 6.89441 71.9622 7.11956L72.3438 7.425C72.396 7.46677 72.4278 7.51643 72.4356 7.56842C72.4434 7.62042 72.427 7.6727 72.3881 7.7194C72.3492 7.76611 72.2895 7.80541 72.2155 7.83289C72.1415 7.86037 72.0562 7.87495 71.9692 7.875ZM69.6255 7.875C69.5527 7.87504 69.4809 7.8649 69.4158 7.84537C69.3507 7.82584 69.2941 7.79746 69.2505 7.7625L68.8684 7.45706C68.5065 7.16754 68.2522 6.8348 68.1228 6.4813C67.9935 6.1278 67.992 5.76176 68.1184 5.40788L68.8089 3.474C68.9073 3.19875 68.9062 2.91403 68.8055 2.63907C68.7048 2.36411 68.507 2.10531 68.2253 1.88016L67.8438 1.575C67.8068 1.54545 67.7799 1.51183 67.7647 1.47605C67.7494 1.44027 67.746 1.40304 67.7547 1.36648C67.7634 1.32991 67.784 1.29474 67.8154 1.26296C67.8468 1.23118 67.8883 1.20341 67.9375 1.18125C67.9867 1.15909 68.0428 1.14297 68.1024 1.1338C68.162 1.12463 68.2241 1.1226 68.285 1.12783C68.346 1.13305 68.4046 1.14542 68.4576 1.16424C68.5105 1.18306 68.5568 1.20795 68.5938 1.2375L68.9758 1.54294C69.3377 1.83243 69.5919 2.16512 69.7213 2.51857C69.8507 2.87202 69.8522 3.23801 69.7258 3.59185L69.0348 5.52572C68.9364 5.80097 68.9376 6.08569 69.0383 6.36065C69.139 6.63561 69.3368 6.89441 69.6184 7.11956L70 7.425C70.0522 7.46677 70.084 7.51643 70.0918 7.56842C70.0997 7.62042 70.0832 7.6727 70.0444 7.7194C70.0055 7.76611 69.9457 7.80541 69.8717 7.83289C69.7978 7.86037 69.7125 7.87495 69.6255 7.875ZM67.2817 7.875C67.2089 7.87509 67.137 7.86496 67.0718 7.84543C67.0066 7.8259 66.9499 7.7975 66.9062 7.7625L66.5242 7.45706C66.1623 7.16754 65.908 6.8348 65.7786 6.4813C65.6492 6.1278 65.6477 5.76176 65.7742 5.40788L66.4652 3.474C66.5636 3.19875 66.5624 2.91403 66.4617 2.63907C66.361 2.36411 66.1632 2.10531 65.8816 1.88016L65.5 1.575C65.4631 1.54545 65.4362 1.51183 65.4209 1.47605C65.4056 1.44027 65.4023 1.40304 65.411 1.36648C65.4285 1.29263 65.4943 1.22601 65.5938 1.18125C65.6932 1.1365 65.8182 1.11728 65.9413 1.12783C66.0644 1.13838 66.1754 1.17783 66.25 1.2375L66.632 1.54294C66.9939 1.83243 67.2481 2.16512 67.3775 2.51857C67.5069 2.87202 67.5084 3.23801 67.382 3.59185L66.6911 5.52572C66.5927 5.80097 66.5938 6.08569 66.6945 6.36065C66.7952 6.63561 66.993 6.89441 67.2747 7.11956L67.6563 7.425C67.7085 7.46677 67.7403 7.51643 67.7481 7.56842C67.7559 7.62042 67.7395 7.6727 67.7006 7.7194C67.6617 7.76611 67.602 7.80541 67.528 7.83289C67.454 7.86037 67.3687 7.87495 67.2817 7.875Z" fill="#F24E1E"/>
<path d="M83.5554 19.9999C83.5554 15.3362 78.158 11.5555 71.4999 11.5555C64.8418 11.5555 59.4443 15.3362 59.4443 19.9999C59.4443 24.6636 64.8418 28.4443 71.4999 28.4443C78.158 28.4443 83.5554 24.6636 83.5554 19.9999Z" fill="#A57939"/>
<path fill-rule="evenodd" clip-rule="evenodd" d="M83.5557 19.9999C83.5557 20.0066 83.5462 20.0084 83.5445 20.0017C82.3243 16.2395 77.4048 13.4257 71.5221 13.4257C65.636 13.4257 60.7143 16.243 59.4975 20.0079C59.4881 20.039 59.4446 20.0324 59.4446 19.9999C59.4446 15.3364 64.842 11.5555 71.5001 11.5555C78.1582 11.5555 83.5557 15.3364 83.5557 19.9999Z" fill="#6A462F"/>
<path d="M83.5444 20.0018L83.9526 19.8609L83.5444 20.0018ZM71.5216 13.8702C74.399 13.8702 77.0284 14.5591 79.0778 15.6946C81.1311 16.8324 82.5705 18.4004 83.1354 20.1431L83.9521 19.8609C83.2968 17.8413 81.6667 16.1209 79.4847 14.9115C77.2983 13.6995 74.5268 12.9813 71.5216 12.9813V13.8702ZM59.9052 20.1489C60.4692 18.4049 61.9081 16.836 63.9619 15.6964C66.0113 14.5595 68.642 13.8702 71.5216 13.8702V12.9813C68.5146 12.9813 65.7413 13.7004 63.5546 14.9133C61.3716 16.124 59.742 17.8462 59.0888 19.8675L59.9056 20.1489H59.9052ZM59.875 20C59.875 17.8591 61.1137 15.8702 63.217 14.3964C65.3185 12.9249 68.2459 12 71.5 12V11.1111C68.0965 11.1111 64.9956 12.0769 62.7339 13.6609C60.4739 15.2444 59.0139 17.4769 59.0139 20H59.875ZM71.5 12C74.7546 12 77.6815 12.9244 79.7826 14.3964C81.8863 15.8702 83.125 17.8591 83.125 20H83.9861C83.9861 17.4769 82.5257 15.244 80.2661 13.6609C78.0049 12.0769 74.9044 11.1111 71.5 11.1111V12ZM59.0893 19.8675C59.1203 19.7745 59.1821 19.6958 59.2639 19.6453C59.3457 19.5948 59.4422 19.5758 59.5363 19.5916C59.6303 19.6075 59.7159 19.6572 59.7779 19.7319C59.8399 19.8066 59.8743 19.9016 59.875 20H59.0139C59.0138 20.1131 59.0531 20.2225 59.1246 20.3082C59.1961 20.3938 59.2952 20.4501 59.4036 20.4666C59.5913 20.496 59.8255 20.3982 59.906 20.1489L59.0893 19.8675ZM83.1358 20.1431C83.2981 20.6431 83.9861 20.4942 83.9861 20H83.125C83.125 19.52 83.7945 19.3738 83.9526 19.8609L83.1358 20.1431Z" fill="#6A462F"/>
<path fill-rule="evenodd" clip-rule="evenodd" d="M82.2639 20.0001C82.2639 20.0001 77.4447 22.6667 71.5 22.6667C65.5755 22.6667 60.7688 20.0179 60.7361 20.0001C60.7593 20.013 63.1601 21.3334 66.118 21.3334C69.0902 21.3334 71.5 20.0001 71.5 20.0001C71.5 20.0001 73.9094 18.6667 76.8819 18.6667C79.854 18.6667 82.2639 20.0001 82.2639 20.0001Z" fill="#6A462F"/>
<path d="M82.2638 20L82.467 20.3915C82.5356 20.3535 82.5929 20.297 82.6328 20.2281C82.6728 20.1591 82.6938 20.0803 82.6938 20C82.6938 19.9196 82.6728 19.8408 82.6328 19.7719C82.5929 19.7029 82.5356 19.6464 82.467 19.6084L82.2638 20ZM60.736 20L60.9388 19.608C60.8381 19.5524 60.7201 19.5404 60.6108 19.5746C60.5015 19.6088 60.4099 19.6865 60.356 19.7904C60.3022 19.8944 60.2906 20.0162 60.3237 20.129C60.3569 20.2418 60.4321 20.3364 60.5328 20.392L60.736 20ZM71.4999 20L71.2962 19.6084L71.4999 20ZM71.4999 23.1111C74.5319 23.1111 77.2702 22.4315 79.2464 21.7555C80.0428 21.4841 80.8259 21.1728 81.593 20.8226C81.8668 20.697 82.1375 20.5643 82.405 20.4249L82.4498 20.4009L82.4618 20.3946L82.4653 20.3924H82.4666V20.392L82.2638 20C82.0601 19.6084 82.0601 19.608 82.0606 19.608H82.0601L82.0584 19.6093L82.0494 19.6142L82.0106 19.6346C81.9589 19.6623 81.907 19.6894 81.8547 19.716C81.6527 19.8183 81.4487 19.9165 81.2429 20.0106C80.5018 20.3487 79.7451 20.6494 78.9756 20.9115C77.0558 21.5684 74.4122 22.2222 71.4999 22.2222V23.1111ZM60.5328 20.392C60.5844 20.4204 65.4669 23.1111 71.4999 23.1111V22.2222C65.6831 22.2222 60.9534 19.616 60.9392 19.608L60.5328 20.392ZM66.1179 20.8889C64.6984 20.8889 63.4059 20.5715 62.4612 20.2493C61.5183 19.928 60.9353 19.6062 60.9388 19.608L60.5332 20.392C60.5745 20.4151 63.052 21.7778 66.1175 21.7778V20.8889H66.1179ZM71.4999 20C71.2962 19.6084 71.2962 19.608 71.2967 19.608H71.2962L71.2924 19.6102C71.2619 19.6269 71.2312 19.643 71.2002 19.6586C71.1331 19.6929 71.0323 19.7422 70.9018 19.8022C70.5377 19.9683 70.166 20.116 69.788 20.2449C68.8421 20.5684 67.5439 20.8889 66.1179 20.8889V21.7778C67.6636 21.7778 69.0565 21.4315 70.0588 21.0889C70.4636 20.9507 70.8616 20.7923 71.2515 20.6142C71.3923 20.5496 71.5315 20.4815 71.6691 20.4098L71.6932 20.3973C71.6958 20.3955 71.6984 20.3946 71.6997 20.3933L71.7018 20.3924L71.7027 20.392L71.4999 20ZM71.4999 20L71.7031 20.392L71.7074 20.3898C71.7379 20.3731 71.7686 20.3569 71.7996 20.3413C71.8663 20.3071 71.967 20.2578 72.0975 20.1978C72.3593 20.0778 72.7399 19.9164 73.2113 19.7551C74.1573 19.4315 75.4558 19.1111 76.8818 19.1111V18.2222C75.3357 18.2222 73.9429 18.5684 72.9405 18.9111C72.5357 19.0492 72.1377 19.2076 71.7479 19.3858C71.599 19.454 71.4518 19.5264 71.3066 19.6026L71.2997 19.6066L71.2975 19.6075L71.2967 19.608L71.4999 20ZM76.8818 19.1111C78.3078 19.1111 79.606 19.4315 80.5519 19.7555C80.9299 19.8842 81.3016 20.0318 81.6657 20.1978C81.7975 20.2583 81.9277 20.3223 82.0562 20.3898L82.0601 20.3915L82.2638 20L82.467 19.608H82.4657C82.4653 19.6071 82.4644 19.6071 82.4636 19.6066C82.4623 19.6053 82.4597 19.6044 82.4571 19.6026L82.433 19.5898C82.4123 19.5791 82.3826 19.5631 82.3447 19.544C82.2681 19.5053 82.1574 19.4506 82.0158 19.3858C81.6259 19.2078 81.2279 19.0495 80.8231 18.9115C79.8199 18.5684 78.4275 18.2222 76.8818 18.2222V19.1111Z" fill="#6A462F"/>
<path d="M20.6567 7.875C20.5839 7.87504 20.5121 7.8649 20.447 7.84537C20.3819 7.82584 20.3253 7.79746 20.2817 7.7625L19.8997 7.45706C19.5377 7.16754 19.2835 6.8348 19.1541 6.4813C19.0247 6.1278 19.0232 5.76176 19.1497 5.40788L19.8402 3.474C19.9386 3.19875 19.9374 2.91403 19.8367 2.63907C19.736 2.36411 19.5382 2.10531 19.2566 1.88016L18.875 1.575C18.8381 1.54545 18.8112 1.51183 18.7959 1.47605C18.7806 1.44027 18.7773 1.40304 18.786 1.36648C18.7947 1.32991 18.8153 1.29474 18.8467 1.26296C18.878 1.23118 18.9195 1.20341 18.9688 1.18125C19.018 1.15909 19.074 1.14297 19.1337 1.1338C19.1933 1.12463 19.2554 1.1226 19.3163 1.12783C19.3772 1.13305 19.4359 1.14542 19.4888 1.16424C19.5418 1.18306 19.5881 1.20795 19.625 1.2375L20.007 1.54294C20.3689 1.83243 20.6231 2.16512 20.7525 2.51857C20.8819 2.87202 20.8834 3.23801 20.757 3.59185L20.0661 5.52572C19.9677 5.80097 19.9688 6.08569 20.0695 6.36065C20.1702 6.63561 20.368 6.89441 20.6497 7.11956L21.0312 7.425C21.0835 7.46677 21.1153 7.51643 21.1231 7.56842C21.1309 7.62042 21.1145 7.6727 21.0756 7.7194C21.0367 7.76611 20.977 7.80541 20.903 7.83289C20.829 7.86037 20.7437 7.87495 20.6567 7.875ZM18.313 7.875C18.2402 7.87504 18.1684 7.8649 18.1033 7.84537C18.0382 7.82584 17.9816 7.79746 17.938 7.7625L17.5559 7.45706C17.194 7.16754 16.9397 6.8348 16.8103 6.4813C16.681 6.1278 16.6795 5.76176 16.8059 5.40788L17.4964 3.474C17.5948 3.19875 17.5937 2.91403 17.493 2.63907C17.3923 2.36411 17.1945 2.10531 16.9128 1.88016L16.5313 1.575C16.4943 1.54545 16.4674 1.51183 16.4522 1.47605C16.4369 1.44027 16.4335 1.40304 16.4422 1.36648C16.4509 1.32991 16.4715 1.29474 16.5029 1.26296C16.5343 1.23118 16.5758 1.20341 16.625 1.18125C16.6742 1.15909 16.7303 1.14297 16.7899 1.1338C16.8495 1.12463 16.9116 1.1226 16.9725 1.12783C17.0335 1.13305 17.0921 1.14542 17.1451 1.16424C17.198 1.18306 17.2443 1.20795 17.2812 1.2375L17.6633 1.54294C18.0252 1.83243 18.2794 2.16512 18.4088 2.51857C18.5382 2.87202 18.5397 3.23801 18.4133 3.59185L17.7223 5.52572C17.6239 5.80097 17.6251 6.08569 17.7258 6.36065C17.8265 6.63561 18.0243 6.89441 18.3059 7.11956L18.6875 7.425C18.7397 7.46677 18.7715 7.51643 18.7793 7.56842C18.7872 7.62042 18.7707 7.6727 18.7319 7.7194C18.693 7.76611 18.6332 7.80541 18.5592 7.83289C18.4853 7.86037 18.4 7.87495 18.313 7.875ZM15.9692 7.875C15.8964 7.87504 15.8246 7.8649 15.7595 7.84537C15.6944 7.82584 15.6378 7.79746 15.5942 7.7625L15.2122 7.45706C14.8502 7.16754 14.596 6.8348 14.4666 6.4813C14.3372 6.1278 14.3357 5.76176 14.4622 5.40788L15.1527 3.474C15.2511 3.19875 15.2499 2.91403 15.1492 2.63907C15.0486 2.36411 14.8507 2.10531 14.5691 1.88016L14.1875 1.575C14.1506 1.54545 14.1237 1.51183 14.1084 1.47605C14.0931 1.44027 14.0898 1.40304 14.0985 1.36648C14.1072 1.32991 14.1278 1.29474 14.1592 1.26296C14.1905 1.23118 14.232 1.20341 14.2812 1.18125C14.3305 1.15909 14.3865 1.14297 14.4462 1.1338C14.5058 1.12463 14.5679 1.1226 14.6288 1.12783C14.6897 1.13305 14.7484 1.14542 14.8013 1.16424C14.8543 1.18306 14.9006 1.20795 14.9375 1.2375L15.3191 1.54294C15.681 1.83241 15.9353 2.16509 16.0648 2.51854C16.1943 2.87199 16.1959 3.23799 16.0695 3.59185L15.3786 5.52572C15.2802 5.80097 15.2813 6.08569 15.382 6.36065C15.4827 6.63561 15.6805 6.89441 15.9622 7.11956L16.3438 7.425C16.396 7.46677 16.4278 7.51643 16.4356 7.56842C16.4434 7.62042 16.427 7.6727 16.3881 7.7194C16.3492 7.76611 16.2895 7.80541 16.2155 7.83289C16.1415 7.86037 16.0562 7.87495 15.9692 7.875ZM13.6255 7.875C13.5527 7.87504 13.4809 7.8649 13.4158 7.84537C13.3507 7.82584 13.2941 7.79746 13.2505 7.7625L12.8684 7.45706C12.5065 7.16754 12.2522 6.8348 12.1228 6.4813C11.9935 6.1278 11.992 5.76176 12.1184 5.40788L12.8089 3.474C12.9073 3.19875 12.9062 2.91403 12.8055 2.63907C12.7048 2.36411 12.507 2.10531 12.2253 1.88016L11.8438 1.575C11.8068 1.54545 11.7799 1.51183 11.7647 1.47605C11.7494 1.44027 11.746 1.40304 11.7547 1.36648C11.7634 1.32991 11.784 1.29474 11.8154 1.26296C11.8468 1.23118 11.8883 1.20341 11.9375 1.18125C11.9867 1.15909 12.0428 1.14297 12.1024 1.1338C12.162 1.12463 12.2241 1.1226 12.285 1.12783C12.346 1.13305 12.4046 1.14542 12.4576 1.16424C12.5105 1.18306 12.5568 1.20795 12.5938 1.2375L12.9758 1.54294C13.3377 1.83243 13.5919 2.16512 13.7213 2.51857C13.8507 2.87202 13.8522 3.23801 13.7258 3.59185L13.0348 5.52572C12.9364 5.80097 12.9376 6.08569 13.0383 6.36065C13.139 6.63561 13.3368 6.89441 13.6184 7.11956L14 7.425C14.0522 7.46677 14.084 7.51643 14.0918 7.56842C14.0997 7.62042 14.0832 7.6727 14.0444 7.7194C14.0055 7.76611 13.9457 7.80541 13.8717 7.83289C13.7978 7.86037 13.7125 7.87495 13.6255 7.875ZM11.2817 7.875C11.2089 7.87509 11.137 7.86496 11.0718 7.84543C11.0066 7.8259 10.9499 7.7975 10.9062 7.7625L10.5242 7.45706C10.1623 7.16754 9.90801 6.8348 9.77863 6.4813C9.64924 6.1278 9.64774 5.76176 9.77422 5.40788L10.4652 3.474C10.5636 3.19875 10.5624 2.91403 10.4617 2.63907C10.361 2.36411 10.1632 2.10531 9.88156 1.88016L9.5 1.575C9.46307 1.54545 9.43619 1.51183 9.42092 1.47605C9.40564 1.44027 9.40226 1.40304 9.41096 1.36648C9.42854 1.29263 9.49429 1.22601 9.59375 1.18125C9.69321 1.1365 9.81822 1.11728 9.94129 1.12783C10.0644 1.13838 10.1754 1.17783 10.25 1.2375L10.632 1.54294C10.9939 1.83243 11.2481 2.16512 11.3775 2.51857C11.5069 2.87202 11.5084 3.23801 11.382 3.59185L10.6911 5.52572C10.5927 5.80097 10.5938 6.08569 10.6945 6.36065C10.7952 6.63561 10.993 6.89441 11.2747 7.11956L11.6563 7.425C11.7085 7.46677 11.7403 7.51643 11.7481 7.56842C11.7559 7.62042 11.7395 7.6727 11.7006 7.7194C11.6617 7.76611 11.602 7.80541 11.528 7.83289C11.454 7.86037 11.3687 7.87495 11.2817 7.875Z" fill="#F24E1E"/>
<path d="M27.5554 19.9999C27.5554 15.3362 22.158 11.5555 15.4999 11.5555C8.84179 11.5555 3.44434 15.3362 3.44434 19.9999C3.44434 24.6636 8.84179 28.4443 15.4999 28.4443C22.158 28.4443 27.5554 24.6636 27.5554 19.9999Z" fill="#A57939"/>
<path fill-rule="evenodd" clip-rule="evenodd" d="M27.5557 19.9999C27.5557 20.0066 27.5462 20.0084 27.5445 20.0017C26.3243 16.2395 21.4048 13.4257 15.5221 13.4257C9.63597 13.4257 4.71429 16.243 3.49754 20.0079C3.48807 20.039 3.44458 20.0324 3.44458 19.9999C3.44458 15.3364 8.84202 11.5555 15.5001 11.5555C22.1582 11.5555 27.5557 15.3364 27.5557 19.9999Z" fill="#6A462F"/>
<path d="M27.5444 20.0018L27.9526 19.8609L27.5444 20.0018ZM15.5216 13.8702C18.399 13.8702 21.0284 14.5591 23.0778 15.6946C25.1311 16.8324 26.5705 18.4004 27.1354 20.1431L27.9521 19.8609C27.2968 17.8413 25.6667 16.1209 23.4847 14.9115C21.2983 13.6995 18.5268 12.9813 15.5216 12.9813V13.8702ZM3.90517 20.1489C4.46919 18.4049 5.90811 16.836 7.96186 15.6964C10.0113 14.5595 12.642 13.8702 15.5216 13.8702V12.9813C12.5146 12.9813 9.74135 13.7004 7.55455 14.9133C5.37164 16.124 3.74199 17.8462 3.08883 19.8675L3.9056 20.1489H3.90517ZM3.87503 20C3.87503 17.8591 5.11374 15.8702 7.217 14.3964C9.31854 12.9249 12.2459 12 15.5 12V11.1111C12.0965 11.1111 8.99562 12.0769 6.73392 13.6609C4.47393 15.2444 3.01392 17.4769 3.01392 20H3.87503ZM15.5 12C18.7546 12 21.6815 12.9244 23.7826 14.3964C25.8863 15.8702 27.125 17.8591 27.125 20H27.9861C27.9861 17.4769 26.5257 15.244 24.2661 13.6609C22.0049 12.0769 18.9044 11.1111 15.5 11.1111V12ZM3.08926 19.8675C3.12026 19.7745 3.18212 19.6958 3.26393 19.6453C3.34573 19.5948 3.4422 19.5758 3.53626 19.5916C3.63033 19.6075 3.71593 19.6572 3.77792 19.7319C3.83992 19.8066 3.87432 19.9016 3.87503 20H3.01392C3.01377 20.1131 3.05306 20.2225 3.1246 20.3082C3.19615 20.3938 3.29517 20.4501 3.40357 20.4666C3.59129 20.496 3.82551 20.3982 3.90603 20.1489L3.08926 19.8675ZM27.1358 20.1431C27.2981 20.6431 27.9861 20.4942 27.9861 20H27.125C27.125 19.52 27.7945 19.3738 27.9526 19.8609L27.1358 20.1431Z" fill="#6A462F"/>
<path fill-rule="evenodd" clip-rule="evenodd" d="M26.2639 20.0001C26.2639 20.0001 21.4447 22.6667 15.5 22.6667C9.57553 22.6667 4.76881 20.0179 4.73608 20.0001C4.75933 20.013 7.16011 21.3334 10.118 21.3334C13.0902 21.3334 15.5 20.0001 15.5 20.0001C15.5 20.0001 17.9094 18.6667 20.8819 18.6667C23.854 18.6667 26.2639 20.0001 26.2639 20.0001Z" fill="#6A462F"/>
<path d="M26.2638 20L26.467 20.3915C26.5356 20.3535 26.5929 20.297 26.6328 20.2281C26.6728 20.1591 26.6938 20.0803 26.6938 20C26.6938 19.9196 26.6728 19.8408 26.6328 19.7719C26.5929 19.7029 26.5356 19.6464 26.467 19.6084L26.2638 20ZM4.736 20L4.93879 19.608C4.83807 19.5524 4.72009 19.5404 4.61081 19.5746C4.50152 19.6088 4.40987 19.6865 4.35603 19.7904C4.30219 19.8944 4.29057 20.0162 4.32371 20.129C4.35686 20.2418 4.43206 20.3364 4.53278 20.392L4.736 20ZM15.4999 20L15.2962 19.6084L15.4999 20ZM15.4999 23.1111C18.5319 23.1111 21.2702 22.4315 23.2464 21.7555C24.0428 21.4841 24.8259 21.1728 25.593 20.8226C25.8668 20.697 26.1375 20.5643 26.405 20.4249L26.4498 20.4009L26.4618 20.3946L26.4653 20.3924H26.4666V20.392L26.2638 20C26.0601 19.6084 26.0601 19.608 26.0606 19.608H26.0601L26.0584 19.6093L26.0494 19.6142L26.0106 19.6346C25.9589 19.6623 25.907 19.6894 25.8547 19.716C25.6527 19.8183 25.4487 19.9165 25.2429 20.0106C24.5018 20.3487 23.7451 20.6494 22.9756 20.9115C21.0558 21.5684 18.4122 22.2222 15.4999 22.2222V23.1111ZM4.53278 20.392C4.58444 20.4204 9.46694 23.1111 15.4999 23.1111V22.2222C9.68308 22.2222 4.95343 19.616 4.93922 19.608L4.53278 20.392ZM10.1179 20.8889C8.6984 20.8889 7.40587 20.5715 6.46123 20.2493C5.51832 19.928 4.93535 19.6062 4.93879 19.608L4.53321 20.392C4.57454 20.4151 7.05196 21.7778 10.1175 21.7778V20.8889H10.1179ZM15.4999 20C15.2962 19.6084 15.2962 19.608 15.2967 19.608H15.2962L15.2924 19.6102C15.2619 19.6269 15.2312 19.643 15.2002 19.6586C15.1331 19.6929 15.0323 19.7422 14.9018 19.8022C14.5377 19.9683 14.166 20.116 13.788 20.2449C12.8421 20.5684 11.5439 20.8889 10.1179 20.8889V21.7778C11.6636 21.7778 13.0565 21.4315 14.0588 21.0889C14.4636 20.9507 14.8616 20.7923 15.2515 20.6142C15.3923 20.5496 15.5315 20.4815 15.6691 20.4098L15.6932 20.3973C15.6958 20.3955 15.6984 20.3946 15.6997 20.3933L15.7018 20.3924L15.7027 20.392L15.4999 20ZM15.4999 20L15.7031 20.392L15.7074 20.3898C15.7379 20.3731 15.7686 20.3569 15.7996 20.3413C15.8663 20.3071 15.967 20.2578 16.0975 20.1978C16.3593 20.0778 16.7399 19.9164 17.2113 19.7551C18.1573 19.4315 19.4558 19.1111 20.8818 19.1111V18.2222C19.3357 18.2222 17.9429 18.5684 16.9405 18.9111C16.5357 19.0492 16.1377 19.2076 15.7479 19.3858C15.599 19.454 15.4518 19.5264 15.3066 19.6026L15.2997 19.6066L15.2975 19.6075L15.2967 19.608L15.4999 20ZM20.8818 19.1111C22.3078 19.1111 23.606 19.4315 24.5519 19.7555C24.9299 19.8842 25.3016 20.0318 25.6657 20.1978C25.7975 20.2583 25.9277 20.3223 26.0562 20.3898L26.0601 20.3915L26.2638 20L26.467 19.608H26.4657C26.4653 19.6071 26.4644 19.6071 26.4636 19.6066C26.4623 19.6053 26.4597 19.6044 26.4571 19.6026L26.433 19.5898C26.4123 19.5791 26.3826 19.5631 26.3447 19.544C26.2681 19.5053 26.1574 19.4506 26.0158 19.3858C25.6259 19.2078 25.2279 19.0495 24.8231 18.9115C23.8199 18.5684 22.4275 18.2222 20.8818 18.2222V19.1111Z" fill="#6A462F"/>
</svg>
